<?xml version="1.0" encoding="UTF-8"?>
<svg width="294.06" height="316.48" enable-background="new 0 0 294.058 316.475" viewBox="0 0 294.058 316.475" xmlns="http://www.w3.org/2000/svg">
 <g fill-rule="evenodd">
  <path d="m48.798,199.44s-11.835,3.944-11.302,7.89c.959,7.781-15.139,5.756-21.644,7.781-13.754,4.48-21.323,15.141-3.41,17.699 20.577,2.985 29.958,11.303 44.137,10.769 14.288-.427 35.931-10.342 56.934-7.356 21.216,2.985 44.672,5.438 50.962,3.944 6.398-1.491 31.026-10.767 35.931-7.356s19.618,18.659 23.027,26.546 7.89,27.507 11.728,32.839c3.946,5.438 7.893-73.138-8.314-84.865-16.21-11.82-151.61-18.22-178.05-7.88z" fill="#494441"/>
  <path d="m226.85,193.05s-13.434,2.025 5.757,10.874c14.5,6.717 29.743,2.773 47.763,25.482 9.915,12.367 16.741,42.22 11.301,60.877-5.541,19.296-12.261,26.334-27.505,26.013-14.182-.319-23.99-10.339-27.934-22.175-3.305-9.809-4.265-20.257-5.438-25.48-1.918-8.851-4.904-20.578-14.18-30.917-9.382-10.345-4.691-20.153-16.204-24.097 0,0 9.27-27.93 26.44-20.57z" fill="#4e462d" stroke="#000" stroke-linecap="round" stroke-linejoin="round" stroke-miterlimit="2.4142" stroke-width=".36"/>
  <path d="m239.21,290.82c-2.985-9.169-4.053-18.978-5.438-24.204-2.135-8.526-5.223-19.508-13.967-29.21s-4.584-20.151-15.884-22.709c-.109-.212.53-2.773 2.021-6.077 2.667-7.571 9.172-18.126 19.3-14.18-.107-.212-2.346,3.731.854,7.356 .958.958 2.346,1.919 4.369,2.877 7.786,3.731 21.326,1.921 35.609,13.649 3.094,2.452 6.292,5.65 9.596,9.915 9.491,11.727 16.74,39.235 12.688,57.252-1.706,6.929-3.625,12.26-6.184,16.419-3.946,6.398-9.275,9.275-17.486,9.49-12.47.95-21.53-8.01-25.48-20.58z" fill="#534d32"/>
  <path d="m242.3,287.51c-2.771-8.636-3.944-17.807-5.438-22.924-2.346-8.208-5.65-18.444-13.752-27.401-8.212-9.169-5.438-18.763-15.565-21.536-.322-.212.105-2.665 1.278-5.544 1.386-7.462 6.184-17.057 14.819-14.285-.215-.425-2.133,2.667.852,5.438 .958.746 2.347,1.491 4.265,2.346 7.464,3.198 20.152,3.41 33.157,14.073 2.771,2.238 5.865,5.329 9.062,9.275 9.171,11.194 16.739,36.461 13.97,53.733-1.28,6.504-2.773,11.621-4.799,15.674-3.307,6.398-7.89,9.596-14.926,10.235-10.76,2.13-18.97-5.87-22.92-19.09z" fill="#5a5236"/>
  <path d="m245.4,284.2c-2.559-8.102-3.841-16.526-5.545-21.536-2.559-7.996-5.971-17.592-13.539-25.801-7.569-8.53-6.078-17.271-15.246-20.151-.428-.533-.215-2.664.639-5.223 0-7.25 3.307-15.886 10.236-14.289-.109-.746-1.707,1.601.959,3.625 .96.321 2.238.96 4.052,1.706 7.144,2.88 19.296,5.011 30.704,14.395 2.559,2.131 5.545,5.01 8.744,8.848 8.637,10.448 16.736,33.479 15.245,50.108-.854,6.08-1.919,10.981-3.626,14.928-2.558,6.396-6.289,9.809-12.26,10.873-8.95,3.53-16.41-3.51-20.35-17.48z" fill="#5f583a"/>
  <path d="m248.49,280.9c-2.24-7.566-3.731-15.351-5.65-20.254-2.667-7.678-6.398-16.525-13.222-24.094-7.142-7.89-6.823-15.78-14.925-18.872-.533-.533-.641-2.452-.215-4.798-1.171-7.038.427-14.819 5.865-14.288-.213-.958-1.386.533 1.065,1.706 .855.108 2.134.534 3.839,1.173 6.824,2.346 18.125,6.505 28.253,14.819 2.346,1.918 5.115,4.692 8.211,8.317 8.314,9.809 16.737,30.599 16.522,46.591-.424,5.438-1.064,10.236-2.237,14.073-1.919,6.29-4.904,10.021-9.595,11.622-7.34,4.68-13.95-1.29-17.89-16z" fill="#675e40"/>
  <path d="m251.58,277.59c-2.025-7.035-3.622-14.18-5.65-18.978-2.877-7.356-6.823-15.459-13.116-22.388-6.501-7.25-7.462-14.395-14.498-17.592-.745-.64-1.493-3.623.428-3.198 4.157,1.067-.215-6.183 3.52-6.717-.321-1.172-.215-3.516 1.916-3.092 .854-.212-1.173-4.052.428-3.519 6.504,2.025 15.991,6.29 24.735,13.54 2.023,1.707 4.689,4.374 7.676,7.784 7.996,9.063 16.737,27.613 17.91,42.966 0,5.01-.32,9.488-1.063,13.434-1.279,6.184-3.414,10.127-6.932,12.155-5.55,6.08-11.41.97-15.36-14.39z" fill="#6f6644"/>
  <path d="m254.67,274.29c-1.811-6.505-3.626-12.9-5.756-17.698-3.093-7.038-7.146-14.393-12.795-20.685-5.972-6.608-8.317-12.9-14.18-16.311-.96-.746-1.494-2.24-1.707-3.837-3.837-6.717.747-4.374 2.986-6.077-.32-1.386.745-3.413 2.664-3.84 .853-.533-.746-2.452.745-2.025 6.184,1.601 11.198,5.01 18.445,11.197 1.815,1.491 4.374,3.941 7.25,7.248 7.678,8.423 16.847,24.628 19.192,39.341 .426,4.586.638,8.851.213,12.688-.533,6.184-1.919,10.449-4.265,12.9-3.81,7.26-8.82,3.21-12.77-12.89z" fill="#746b49"/>
  <path d="m257.66,270.98c-1.493-5.971-3.41-11.727-5.648-16.419-3.307-6.717-7.569-13.328-12.689-18.978-5.332-5.972-8.956-11.409-13.861-14.928-.958-.958-1.81-2.238-2.451-3.517-5.011-6.504-4.478-5.011-2.132-6.61 1.279-.852 1.919-1.492 3.625-2.665 .853-.854-.852-4.691.534-4.371 5.756,1.171 10.021,5.757 15.886,10.767 1.491,1.494 3.943,3.731 6.715,6.717 7.356,7.782 16.846,21.857 20.472,35.931 .961,4.05 1.491,7.996 1.597,11.833 .109,6.183-.424,10.661-1.703,13.54-2.04,8.54-6.3,5.55-10.35-11.3z" fill="#7b714d"/>
  <path d="m225.25,208.83c3.412-4.904 6.076-.106 11.408,4.798 5.438,5.011 28.038,26.119 31.026,49.683 2.877,23.561-1.495,27.935-6.932,4.371-5.329-23.561-25.801-39.98-34.864-49.043-9.29-9.39-5.13-3.42-.65-9.81z" fill="#807854"/>
  <path d="m203.5,211.07-1.918,2.559s5.328,1.813 7.356,7.997c2.131,5.971 3.519,11.836 9.593,17.911 4.159,3.946 10.024,14.928 12.794,29.959 2.134,11.515 3.52,30.492 15.353,40.086 11.091,8.851 25.91,7.678 32.412,2.774 0,0-16.953,7.144-30.386-3.947-10.768-8.848-12.792-27.507-13.222-30.384-.531-2.985-2.344-23.776-10.873-35.076-3.625-5.011-9.063-9.915-10.236-14.286-1.279-4.479-5.65-12.476-3.943-12.9 1.491.104 3.091.958 3.837-.215 .748-1.064-.213-2.131-.213-2.131s4.159,1.067 5.438,2.237c1.279,1.282 3.626,2.879 3.626,2.879s-6.718-13.646-1.813-12.476-1.386-5.968-.96-7.462c0,0 4.479,3.519 8.529,3.946 0,0-2.559-1.385-2.986-5.971-.213-2.771-10.021-5.863-16.737,3.731-6.83,9.59-5.65,10.77-5.65,10.77z" fill="#2b2718"/>
  <path d="m212.13 225.46c2.237-1.707 8.314-8.103 9.809-13.007s4.688-8.317 8.421-8.102" fill="none" stroke="#2b2718" stroke-linecap="round" stroke-linejoin="round" stroke-miterlimit="2.4142" stroke-width="1.152"/>
  <path d="m210.43 220.24s8.635-7.996 9.597-13.434 7.144-4.904 7.144-4.904" fill="none" stroke="#2b2718" stroke-linecap="round" stroke-linejoin="round" stroke-miterlimit="2.4142" stroke-width="1.152"/>
  <path d="m207.98,215.86c.961-.958 5.649-6.608 7.356-10.234 2.026-4.371 3.197-7.569 9.063-6.504" fill="none" stroke="#2b2718" stroke-linecap="round" stroke-linejoin="round" stroke-miterlimit="2.4142" stroke-width="1.152"/>
  <path d="m208.94,218.1s3.197-1.494 6.183-1.494c2.982,0 5.329,0 8.529-1.919 3.198-2.025 7.463-5.438 12.047-3.946 4.692,1.494 6.398,1.494 10.022,1.921 3.732.531 12.049,0 14.82,1.276" fill="none" stroke="#2b2718" stroke-linecap="round" stroke-linejoin="round" stroke-miterlimit="2.4142" stroke-width="1.152"/>
  <path d="m206.27,214.37s2.877-1.704 5.329-1.491c2.559.318 8.209,0 10.127-1.918 1.921-2.028 5.653-4.159 10.557-2.986 4.904,1.279 7.142,2.025 10.555,2.24 3.41.212 7.89,0 10.023.531" fill="none" stroke="#2b2718" stroke-linecap="round" stroke-linejoin="round" stroke-miterlimit="2.4142" stroke-width="1.152"/>
  <path d="m210.43,209.68s6.183-.215 8.847-1.921c2.668-1.707 6.078-3.41 11.304-2.131 5.117,1.173 10.342,1.707 10.342,1.707" fill="none" stroke="#2b2718" stroke-linecap="round" stroke-linejoin="round" stroke-miterlimit="2.4142" stroke-width="1.152"/>
  <path d="m213.41,205.1s5.649-1.279 7.995-2.237c2.559-.96 6.184-.427 8.955.746" fill="none" stroke="#2b2718" stroke-linecap="round" stroke-linejoin="round" stroke-miterlimit="2.4142" stroke-width="1.152"/>
  <path d="m13.188,12.229c3.198-2.561 9.062-6.826 10.768-7.571 0,0-1.173,3.198 1.173,1.919 2.558-1.173 6.929-4.156 10.128-4.371 0,0-1.706,2.667 1.919,1.173 3.731-1.491 12.58-3.198 16.525-3.198 0,0-.746,1.494 1.705,1.279 2.454-.321 11.303-1.813 18.339-.746 7.143.96 9.382,1.918 10.662,2.664 1.173.748-2.239.961.747,2.025 2.878.961 8.742,2.88 11.3,4.907 2.346,1.918-.319,1.704 2.346,3.41 2.771,1.707 6.716,5.65 10.662,7.357 3.838,1.706 12.474,4.37 15.352,4.158 0,0-2.665,2.237 1.28,2.452 3.944.213 13.007,2.24 16.205,3.198 0,0-4.903,2.24-.746,2.771 4.157.427 15.674,2.346 18.551,3.625 0,0-7.145,1.173-1.172,2.667 5.864,1.492 14.924,3.516 17.377,4.689 0,0-6.823,1.707-.961,3.413 5.865,1.707 15.461,5.223 18.875,7.678 0,0-3.414.425.317,2.131 3.625,1.813 9.063,6.184 11.194,8.636 0,0-2.452-.212-.213,2.24s9.597,9.49 11.088,12.046c0,0-2.451-.319.428,2.879 2.986,3.2 6.929,10.13 6.929,10.13s-3.197-1.495-1.278,1.918 3.73,4.69 5.223,8.848c0,0-3.517-.958-1.492,1.919 1.92,2.985 5.117,8.104 6.077,10.875 0,0-3.197-1.066-1.173,1.707 1.919,2.665 4.157,7.035 4.587,9.487 0,0-4.374-3.198-2.881-.212 1.386,2.985 2.132,7.356 2.881,9.381 0,0-2.134-1.492-1.708,2.134 .535,3.731.747,5.968.747,7.356 0,0-2.665-1.707-1.492,2.452 1.28,4.262.53,8.848.53,8.848s-2.131-2.452-1.703.96c.53,3.413.53,10.767.745,11.728 0,0-1.918-1.707-1.493,2.664 .535,4.478 0,8.638-.213,10.342 0,0-2.77-2.876-2.77,1.173 0,4.265.745,9.596.745,9.596s-3.413-.533-2.452,2.45c.745,2.24 1.279,4.267 1.279,4.267s-6.398-3.198-9.063-6.717 0,7.142.962,9.167c0,0-4.159-1.704-2.24,1.706 2.025,3.413 5.438,9.063 5.649,11.303 0,0-3.731-5.225-10.767-5.438 0,0 3.413,3.731-1.492,1.918-4.903-1.706-8.85,0-8.104,1.491 .745,1.495-4.159,0-6.396,0-2.134,0-3.201-1.173-5.865.534-2.771,1.707-3.942,1.173-3.942,1.173l2.236,2.24s-12.046,4.371-14.285,3.943c-2.24-.53.53,2.453 2.664,3.201 0,0-10.77,1.707-14.393-.748-3.731-2.453 0,2.667 0,2.667s-12.581-2.879-15.995-5.438-.53,2.025-.211,2.771c.211.748-1.173.215-2.879-1.492s-7.355-3.198-9.809-9.275c0,0-.212,4.371.96,6.611 1.173,2.131 7.25,12.579-4.691,13.007-6.823.212-10.768-1.707-22.282-2.24-11.514-.428-29.745,1.491-38.595,2.664-9.168,1.282-4.904-3.411-4.584-5.329 0,0-2.238-1.279-5.651-1.279-3.624,0-6.29-1.281-.214-4.691 2.132-1.173 1.387-1.707 1.387-1.707s.319-.746-2.132-.212c-2.559.533-2.986-1.919 1.387-3.625 4.477-1.707 8.422-3.947 11.088-5.011 2.666-.96 5.116-.64 8.849-.64 3.625,0 14.18,1.918 17.912,2.876 3.625,1.067 12.046,3.201 13.008,1.707 .959-1.386-2.986-3.944-3.413-6.077l-.96,1.921s-3.944-4.907-4.477-7.038c0,0-7.144-.746-11.302-.533s-10.768,1.918-16.419,3.2c-5.65,1.171-12.794,2.877-14.713,3.198-2.025.212-4.051-1.601-.959-4.159 1.707-1.494.427-2.773.427-2.773s-.427-2.131-3.199-1.491c-2.665.746-7.143-1.386-1.493-3.413 1.067-.318 2.026-.958 2.026-.958s.959-1.282 1.918-2.985c1.065-1.707 4.904-4.265 7.997-4.479 3.199-.319 6.717-.106 9.914.215 3.2.427 6.718.212 9.383.427 2.666.319 10.769.212 10.769.212s1.919-11.088 3.411-15.247-.854-4.691-2.878-5.649c-3.731-1.707-8.636-10.342-8.423-4.905 0,0-4.584-2.346-7.57-9.49-1.706-4.156-2.238-.958-2.238-.958s-3.2-6.398-3.2-8.851-1.705-.213-1.705.533c0,0-1.173-8.636.746-10.875 0,0-6.077,1.494-7.144,2.027-.96.424 1.28-3.2-1.919-2.24s-10.554,2.985-6.396-.96-6.397,0-8.104.748-4.158.958-1.705-2.452c0,0-6.397-.534-9.063.212 0,0-.32-2.453 1.173-3.198 0,0-6.824.746-8.316.321-1.493-.534-5.438-2.24-5.438.424 0,2.667 3.198,2.986 2.239,5.865-.96,2.986-3.945,4.905-6.823.746 0,0 .747,3.198.427,5.223-.213,1.918-4.158,2.452-5.864-1.276 0,0-5.118-3.201-5.651-8.532-.426-5.438 4.371-13.541 8.316-14.82 3.945-1.173 8.316-1.704 10.874-1.385l-1.065-1.066s3.731-.746 7.357-2.131c3.731-1.492 12.046-4.905 9.381-5.653 0,0 5.864-3.198 6.398-3.943 .426-.746-2.24-2.025-5.438-2.025s-9.063-.215-10.342-1.173c-1.173-.96-3.838-2.025-4.371,1.173s-.959,8.102-5.438,7.142c-4.371-.958-9.809-1.918-10.021-6.396-.214-4.371.532-10.021 5.864-12.048 5.436-1.919 17.697-1.704 14.925-3.944 0,0 11.835,1.494 14.82-2.346 2.878-3.944 4.691-9.169-2.773-15.032-7.355-5.865-7.355-1.491-13.006-7.571 0,0-1.919-1.064-2.346-.319-.533.746-2.772-4.159-6.93-6.61s-13.967-1.919-12.581-8.529c0,0-10.236-4.159-11.515-10.343 0,0-1.813-4.371-3.625-9.809-.319-.746-.319-2.452 0-4.371 .214-2.025 1.173-3.519 4.586-5.225 3.476-1.726 7.1-3.966 8.38-4.924z" fill="#744e32" stroke="#000" stroke-linecap="round" stroke-linejoin="round" stroke-miterlimit="2.4142" stroke-width=".36"/>
  <path d="m2.526,18.946c1.387-.855 2.771-1.815 2.452-.855-.426,1.067-.64,1.173.426,1.386 1.173.215-.106.96-.426.96 0,0 1.173.534.959.96-.212.531 2.132.425 2.132.425s-2.345.96-3.304,2.452c-.747,1.494-.641,3.946-1.387,4.692s-1.387,1.279-1.813.319c-.534-.958-1.387-2.45-1.279-4.369 .108-2.027-.212-4.479 2.24-5.97z" fill="#1b1810"/>
  <path d="m2.74,23.21c-.748,0-1.919,1.279-.748,2.558 1.279,1.17 1.279.106.748-.427-.534-.425-.748-1.386.106-1.598s.64-.533-.106-.533z" fill="#675e40"/>
  <path d="m59.138,16.6c1.281-1.918 9.063-.64 9.063-.64s-3.838-.748-4.052-2.24c-.319-1.491 5.758-2.985 5.758-2.985s-10.128-3.838-13.433-2.026c-1.813.852-8.316-.854-9.703-.639-4.157.533-10.555,1.706-13.752,2.664s-2.134-.639-2.134-.639c-3.198.639-12.793,4.052-17.483,6.29-1.173.643 0-1.704 0-1.704s-5.332,1.491-6.825,2.983 3.412.854 2.879,2.879c-.747,3.2.32,3.731 1.492,2.985 1.281-.746 5.225-.746 7.358-1.173 4.904-1.063 4.157,2.665 4.157,2.665s3.839,2.879 2.452,4.691c-1.173,1.388 4.479,8.53 4.691,8.318 2.666-2.667-5.864-8.53 1.706-13.541 2.879-1.813 5.01,1.173 12.9-.746 7.891-1.813 12.689-3.411 14.926-7.142z" fill="#4b3326"/>
  <path d="m84.407,20.119c1.92-.215 2.132-2.455 5.864-3.519 3.625-.96 8.315-1.173 8.315-1.173s-1.172.746.426,1.491c1.813.746 4.691,4.374 5.971,4.905s-3.198-.958-1.493,1.494c1.707,2.452-2.133,4.05.959,5.65 .534.213.321,3.198.321,3.198s-3.199.96-1.812,2.452c1.491,1.386-5.864,2.131-2.453,3.413 0,0-6.077-.534-4.584,1.173 0,0-2.771,2.025-5.65,1.279-2.985-.746-6.397-5.438-7.57-4.905 0,0 .64-2.24 1.92-2.452 0,0-.534-1.279-2.453-.96 0,0 1.706-2.238 2.986-2.238 0,0-3.2-.96-5.012-.215 0,0 3.199-2.985 5.012-2.773 0,0-1.493-2.237-2.772-1.704 0,0 1.705-2.452 2.985-2.452 1.173,0-2.666-1.919-3.944-1.491-1.285.531 2.979-1.173 2.979-1.173z" fill="#4b3326"/>
  <path d="m87.287,21.077c2.985-1.707 5.65-4.478 7.355-2.986 1.813,1.494-.746-3.198 1.813-1.706 2.346,1.494 6.504,2.985 6.077,11.302-.53,8.315-6.609,11.088-11.512,11.303-4.905.212-6.185-8.105-2.453-6.613 0,0-.533-2.025-2.025-2.45-1.385-.533-.212-2.772 2.025-2.24 0,0-.533-1.918-2.238-2.24-1.706-.212-.96-1.918 1.918-1.918 .001,0-2.664-1.491-.958-2.452z" fill="#1b1810"/>
  <path d="m90.271,20.437s6.716-3.198 9.489,0c2.665,3.198 2.239,5.65.959,8.208-1.385,2.559.426-2.452 0-4.156-.533-1.706-2.026-4.798-5.224-4.371-3.199.319-7.038,1.598-5.225.319z" fill="#807854"/>
  <path d="m92.937,25.129c2.238-.321 4.796.533 4.903,2.664 .107,2.237-.425,4.477-.746,5.863-.214,1.282-2.771,2.346-4.584,1.494-1.92-.852-3.092-2.239-2.56-2.452 .428-.106 1.281.958 2.346.958 1.173.215 3.625,1.494 4.158-1.492 .426-3.092-1.28-2.771-.747-4.052 1.067-2.877-4.689-2.77-2.77-2.983z" fill="#675e40"/>
  <path d="m16.386,47.305c-1.279.321-2.239,3.943 5.224,5.862 5.972,1.388 8.423,2.134 12.901,8.53 .32.321 1.706-1.704 5.332,2.773 0,0 1.918-8.529 3.518-4.586 .533,1.173 2.985-5.438 5.438,1.388 0,0 2.132-4.371 5.649,1.064 0,0 4.373-1.491 5.332,2.667 0,0 9.595,1.706 13.754-2.986 4.156-4.583 16.204-19.299 13.219-21.109-2.878-1.706-6.077,7.142-10.022,9.594-3.944,2.453-10.556,5.438-14.713,4.692s-6.823-1.922-6.823-1.922-1.813.428-.748,1.922-2.771-.96-4.69-2.453-4.158-.748-3.199.531c0,0-3.73-3.516-5.117-2.237-1.493,1.173 0,1.919 0,1.919s-2.559-2.453-4.905-2.665c-2.452-.319-15.779-4.157-20.15-2.984z" fill="#4b3326"/>
  <path d="m33.658,90.056s-1.919-.103-2.879.109c-.959.319 1.279,1.279 2.027,2.025s.746,1.173.533,1.601c-.107.53-.853,2.237-.853,2.237s2.131,1.066 2.131,2.027c.107.958 1.813,3.092 3.519,3.304 1.707.105 2.239.105 2.239.105s-3.09-1.6-3.412-2.773c-.426-1.277-.959-3.092-.959-3.092s1.173-1.597.853-2.452c-.32-.741-1.493-2.978-3.199-3.087z" fill="#604130"/>
  <path d="m55.621,75.771s3.518,2.773 2.986,9.808c-.534,7.145-2.452,10.663-3.731,10.875 0,0 2.238,2.88-1.173,7.145 0,0-3.519-1.815-5.863-1.815-2.452,0-7.251.534-9.915-.637-2.771-1.282-.96-4.692-3.413-5.226 0,0 3.413-2.665 1.066-2.877 0,0 .959-2.988-3.519-2.988 0,0 6.611-.212 6.825-1.704 0,0 10.128.212 12.579-1.492s5.864-5.645 4.158-11.082z" fill="#4b3326"/>
  <path d="m30.885,129.93s4.053,1.704 10.662.531c0,0-1.385,1.919-1.173,2.879 0,0 8.423-.427 9.063.213 0,0-1.279,2.133-.746,2.56 .426.319 8.422-2.773 10.021-2.773s2.346.64.426,2.558c-1.172,1.173-1.918,1.919 1.281,1.279s5.863-1.597 6.503-1.064c.639.425.533,2.025.533,2.025s6.504-2.025 7.037-1.706-1.813,3.946-.747,9.596c0,0 .96-.639 1.387-.534 .533.106 1.065,5.865 3.305,9.169 0,0 .852-.96 1.705.321 .853,1.17 3.519,7.993 7.783,10.554 0,0 .107-1.707.853-1.494 .747.321 1.494.749 2.772,2.134 1.387,1.385 4.265,4.477 6.825,5.544 1.812.64 2.024,1.918 2.024,1.918s2.346-6.611 3.305-8.317c1.066-1.704-.426-2.45-1.385-1.492 0,0 9.81-16.101 20.363-20.472 0,0 7.568-3.944 9.596-4.265 1.918-.212-1.066-.958-3.945-.424 0,0 4.69-3.731 9.488-6.396 5.011-2.667 7.89-3.734 7.89-3.734s-17.91,5.438-26.44,1.815-2.771-.321-1.278,1.491c0,0-13.542-4.479-15.673-17.486-1.28-6.61-.533-15.777 1.172-18.657 1.707-2.985-.746-1.706-2.985-5.438 0,0-.959,9.381-4.798,13.328 0,0 5.544-2.773 2.667,1.173-2.986,3.944-6.931,7.356-8.638,8.314 0,0 4.159-.958 4.479.533 .214,1.492-9.061,7.145-12.047,7.569 0,0 4.584.321 4.905,1.282 .214.958-15.672,3.196-20.363,2.665 0,0 2.239,2.452 3.41,2.983 1.281.427-12.792,2.242-19.403.96-6.625-1.16-17.393,1.4-19.847.87z" fill="#4b3326"/>
  <path d="m97.095,198.91c.32-.961.746-2.025.959-.534 .32,1.386 3.625,6.826 3.625,6.826-1.173-.321-7.463-.536-11.3-.536s-24.522,5.013-28.68,5.971c-4.265.854-4.051.106-4.479-.958-.319-.961 2.56-2.24 2.346-4.374-.214-1.598-1.493-2.665-2.879-2.559-1.28.109-3.305.321-4.584-.533-1.387-.852 1.919-2.131 3.092-2.559 1.065-.318 1.813-1.279 1.813-1.279 4.371-9.063 14.394-7.035 19.723-6.502 5.544.425 19.405.531 19.405.531-.216,4.05.744,7.46.958,6.5z" fill="#4b3326"/>
  <path d="m230.36 255.63c1.173-2.455 2.879-3.413 5.759-5.011 2.985-1.494 9.596-6.186 10.981-9.171 1.491-2.88 1.386-10.342 6.078-11.515 4.476-1.277 4.37-4.477 5.543-7.036 1.171-2.346 2.449-6.823 2.344-8.53" fill="none" stroke="#2b2718" stroke-linecap="round" stroke-linejoin="round" stroke-miterlimit="2.4142" stroke-width="1.152"/>
  <path d="m264.91 216.82c0 1.813-1.919 8.102-3.197 10.554-1.173 2.559-1.495 8.105-5.117 9.596-4.479 1.919-6.508 7.463-7.999 10.448s-6.714 6.078-9.702 7.462c-2.982 1.495-6.078 4.159-7.356 6.611" fill="none" stroke="#2b2718" stroke-linecap="round" stroke-linejoin="round" stroke-miterlimit="2.4142" stroke-width="1.152"/>
  <path d="m268.42 219.28c0 1.706-2.983 10.129-4.263 12.582-1.173 2.453-1.815 8.208-4.798 9.381-5.117 1.813-6.932 7.89-8.849 10.982-1.813 2.773-6.186 5.65-9.17 7.142-2.984 1.388-7.144 5.332-8.316 7.89" fill="none" stroke="#2b2718" stroke-linecap="round" stroke-linejoin="round" stroke-miterlimit="2.4142" stroke-width="1.152"/>
  <path d="m271.31 222.26c0 1.707-3.625 11.515-4.905 13.967-1.173 2.453-1.493 8.423-4.798 9.809-4.267 1.707-7.356 7.463-8.85 10.342-1.495 2.983-6.293 5.862-9.169 7.356-2.986 1.492-8.104 6.824-9.383 9.381" fill="none" stroke="#2b2718" stroke-linecap="round" stroke-linejoin="round" stroke-miterlimit="2.4142" stroke-width="1.152"/>
  <path d="m274.93 225.35c0 1.706-4.478 12.473-5.649 14.925-1.279 2.455-1.279 10.024-5.759 11.515-4.905 1.707-6.608 5.65-8.1 8.638-1.494 2.877-6.187 5.862-9.172 7.248-2.877 1.492-10.021 8.851-11.3 11.3" fill="none" stroke="#2b2718" stroke-linecap="round" stroke-linejoin="round" stroke-miterlimit="2.4142" stroke-width="1.152"/>
  <path d="m278.98,229.94c-1.279,2.239-5.116,16.101-6.396,18.553-.749,1.385-3.841,9.063-8.744,10.873-4.478,1.815-6.075,5.759-7.996,8.423-2.134,2.88-5.33,5.759-8.317,7.145-2.983,1.385-10.021,8.848-11.3,11.303" fill="none" stroke="#2b2718" stroke-linecap="round" stroke-linejoin="round" stroke-miterlimit="2.4142" stroke-width="1.152"/>
  <path d="m282.71 235.69c-1.279 2.131-5.971 14.392-7.356 16.847-1.279 2.343-3.52 11.193-10.235 14.07-4.796 2.028-6.291 5.65-9.17 8.957-2.024 2.561-4.155 3.838-7.034 5.865-2.668 1.81-9.064 6.607-10.876 10.554" fill="none" stroke="#2b2718" stroke-linecap="round" stroke-linejoin="round" stroke-miterlimit="2.4142" stroke-width="1.152"/>
  <path d="m237.72,291.24s2.879-1.173 4.586-1.173c1.812,0 14.5,0 16.737-1.067 2.24-.961 7.891-2.134 11.516-.746 3.731,1.492 10.875,2.986 13.222,3.198 2.451.321 5.436,2.452 5.436,2.452" fill="none" stroke="#2b2718" stroke-linecap="round" stroke-linejoin="round" stroke-miterlimit="2.4142" stroke-width="1.152"/>
  <path d="m227.91 250.94c1.173-2.452 2.134-2.452 5.013-3.946 2.986-1.492 9.487-6.29 10.981-9.273 1.386-2.988 1.277-10.345 5.97-11.624 4.479-1.276 4.372-4.477 5.546-6.929s2.131-4.371 2.131-6.184" fill="none" stroke="#2b2718" stroke-linecap="round" stroke-linejoin="round" stroke-miterlimit="2.4142" stroke-width="1.152"/>
  <path d="m252.97,211.28c0,1.812-.321,2.24-1.495,4.798-1.173,2.452-.958,5.649-5.438,7.038-4.585,1.385-4.37,8.742-5.758,11.728-1.386,2.983-7.888,7.781-10.767,9.381s-2.453.318-3.517,2.879c0,0 1.597-.854 4.368-1.279 2.666-.533 12.261-1.282 15.354-3.2 3.199-1.918 8.209-6.608 15.565-4.156s10.235,3.41 15.671,2.665 9.065,1.813 9.065,1.813c-2.239,6.716-13.54,27.294-16.316,28.04-2.77.746-8.205,3.944-10.126,7.675-.962,1.918-3.731,5.756-7.038,7.356-8.422,4.265-12.687,10.875-12.687,10.875" fill="none" stroke="#2b2718" stroke-linecap="round" stroke-linejoin="round" stroke-miterlimit="2.4142" stroke-width="1.152"/>
  <path d="m248.17,210c-1.066,2.559-1.278,6.932-5.652,8.423-4.583,1.601-4.156,8.848-5.435,11.94-1.173,3.095-7.571,8.105-10.345,9.809-2.877,1.706-2.344.427-3.517,2.985 0,0 2.451-1.706 4.904-1.706s13.22-1.492 15.671-3.729 8.317-5.652 12.582-4.479c4.159,1.279 7.568,2.985 12.046,3.519 4.373.425 13.649-.321 15.674,1.707" fill="none" stroke="#2b2718" stroke-linecap="round" stroke-linejoin="round" stroke-miterlimit="2.4142" stroke-width="1.152"/>
  <path d="m243.8,208.72c0,.746-.743,4.692-4.689,6.184s-4.158,5.865-5.331,8.102c-1.28,2.24-2.24,6.398-5.65,9.596-3.519,3.198-9.597,7.251-7.678,6.396 2.773-1.276 5.225-2.025 7.678-2.025s8.529-.958 11.727-3.413c3.201-2.452 8.85-6.608 14.287-4.689 5.331,2.025 8.102,3.41 12.794,3.731 4.585.213 11.727-.96 15.141,1.707" fill="none" stroke="#2b2718" stroke-linecap="round" stroke-linejoin="round" stroke-miterlimit="2.4142" stroke-width="1.152"/>
  <path d="m239.85,207.76c-.427,1.707-3.942,4.692-6.076,5.119-2.24.533-5.438,9.381-6.93,12.58s-9.809,9.275-9.809,9.275 3.944-1.491 6.184-1.491c2.131,0 10.98-.961 13.219-2.665 2.239-1.706 7.677-7.144 14.713-4.904 7.145,2.24 15.248,3.516 20.578,3.198 5.438-.212 7.89,1.279 7.89,1.279" fill="none" stroke="#2b2718" stroke-linecap="round" stroke-linejoin="round" stroke-miterlimit="2.4142" stroke-width="1.152"/>
  <path d="m214.16,229.94s8.529-5.223 10.021-10.127 4.159-11.088 7.677-11.3c3.305-.213 4.054-1.919 4.054-1.919" fill="none" stroke="#2b2718" stroke-linecap="round" stroke-linejoin="round" stroke-miterlimit="2.4142" stroke-width="1.152"/>
  <path d="m242.09 302.01s4.798-5.332 11.618-10.554c2.134-1.706 4.373-2.131 5.44-4.798 1.491-3.838 6.927-7.678 9.593-8.527 4.265-1.388 17.166-20.044 19.618-26.762" fill="none" stroke="#2b2718" stroke-linecap="round" stroke-linejoin="round" stroke-miterlimit="2.4142" stroke-width="1.152"/>
  <path d="m245.08 305.96s5.652-5.12 10.023-8.851c4.053-3.411 4.158-4.156 5.862-6.077 1.709-2.025 6.183-5.969 9.809-7.142 3.732-1.282 18.66-18.872 20.153-21.645" fill="none" stroke="#2b2718" stroke-linecap="round" stroke-linejoin="round" stroke-miterlimit="2.4142" stroke-width="1.152"/>
  <path d="m248.7,309.15s7.356-5.119 10.341-8.529c2.879-3.413 4.692-5.225 6.61-7.145 2.028-2.025 7.356-4.477 10.343-5.438 2.985-.958 13.22-11.727 15.991-14.925" fill="none" stroke="#2b2718" stroke-linecap="round" stroke-linejoin="round" stroke-miterlimit="2.4142" stroke-width="1.152"/>
  <path d="m291.67,284.31s-8.742,7.144-10.766,8.423c-7.356,4.371-10.876,3.943-13.757,5.65-2.557,1.494-1.916,2.667-5.434,5.864-2.986,2.88-9.063,7.357-9.063,7.357s7.568.533 10.555-.747c2.984-1.173 6.396-2.667 10.343-1.173 3.945,1.386 5.115,2.131 5.115,2.131" fill="none" stroke="#2b2718" stroke-linecap="round" stroke-linejoin="round" stroke-miterlimit="2.4142" stroke-width="1.152"/>
  <path d="m257.55 313.63s4.159-2.986 7.142-6.717c2.988-3.625 6.398-5.117 9.81-5.863s10.769-4.374 14.713-7.89" fill="none" stroke="#2b2718" stroke-linecap="round" stroke-linejoin="round" stroke-miterlimit="2.4142" stroke-width="1.152"/>
  <path d="m262.67 314.8s3.195-3.944 6.927-6.184c3.625-2.133 6.077-4.371 15.886-7.569" fill="none" stroke="#2b2718" stroke-linecap="round" stroke-linejoin="round" stroke-miterlimit="2.4142" stroke-width="1.152"/>
  <path d="m268.64 314.59s5.65-5.226 13.435-7.89" fill="none" stroke="#2b2718" stroke-linecap="round" stroke-linejoin="round" stroke-miterlimit="2.4142" stroke-width="1.152"/>
  <path d="m228.12,251.69s.958-1.491 3.73-1.706c2.559-.212 14.393-.746 17.378-2.45 2.88-1.706 7.145-5.652 13.755-3.625 7.251,2.237 14.18,2.877 20.791,2.877 1.703,0 2.451.748 3.731,1.279" fill="none" stroke="#2b2718" stroke-linecap="round" stroke-linejoin="round" stroke-miterlimit="2.4142" stroke-width="1.152"/>
  <path d="m229.62,256.38s.961-1.495 3.625-1.707c2.668-.212 14.501-.746 17.486-2.452 2.877-1.706 7.144-5.65 13.752-3.731 7.251,2.237 14.18,2.986 20.791,2.986 1.706,0 2.451.746 3.731,1.279" fill="none" stroke="#2b2718" stroke-linecap="round" stroke-linejoin="round" stroke-miterlimit="2.4142" stroke-width="1.152"/>
  <path d="m230.79,260.75s1.066-1.388 3.732-1.6c2.666-.106 14.5-.318 17.486-2.025 2.982-1.707 7.355-5.544 13.752-3.41 7.249,2.452 14.182,3.304 20.896,3.516 1.706,0 2.451.746 3.624,1.279" fill="none" stroke="#2b2718" stroke-linecap="round" stroke-linejoin="round" stroke-miterlimit="2.4142" stroke-width="1.152"/>
  <path d="m232.28,265.44s.958-1.388 3.731-1.494c2.664-.106 14.5-.106 17.484-1.707 3.094-1.491 7.462-5.328 13.967-2.982 7.142,2.558 14.073,3.623 20.684,3.837 1.706.106 2.344.958 3.622,1.491" fill="none" stroke="#2b2718" stroke-linecap="round" stroke-linejoin="round" stroke-miterlimit="2.4142" stroke-width="1.152"/>
  <path d="m233.03,270.56s.958-1.388 3.731-1.388c2.774-.104 14.498,0 17.594-1.492 2.982-1.491 7.462-5.223 13.857-2.877 7.145,2.665 14.077,3.732 20.685,4.156 1.704.108 2.346.855 3.626,1.385" fill="none" stroke="#2b2718" stroke-linecap="round" stroke-linejoin="round" stroke-miterlimit="2.4142" stroke-width="1.152"/>
  <path d="m233.99,276s1.067-1.385 3.732-1.385c2.773-.109 14.5.318 17.592-1.173s7.572-5.225 13.968-2.667c7.145,2.773 14.073,3.946 20.577,4.479 1.705.106 2.453.852 3.626,1.491" fill="none" stroke="#2b2718" stroke-linecap="round" stroke-linejoin="round" stroke-miterlimit="2.4142" stroke-width="1.152"/>
  <path d="m234.95,281.65s1.066-1.385 3.838-1.385c2.664,0 14.5.637 17.592-.854s7.678-5.011 13.967-2.45c7.145,2.877 18.124,3.092 21.321,4.795" fill="none" stroke="#2b2718" stroke-linecap="round" stroke-linejoin="round" stroke-miterlimit="2.4142" stroke-width="1.152"/>
  <path d="m236.23,286.34c1.706-.748 3.197-1.279 5.652-.96 2.449.212 14.713-.534 16.844-1.492 3.517-1.494 7.142-3.946 12.367-.746 3.946,2.45 13.755,2.983 15.671,3.41 2.027.533 3.946,2.238 3.946,2.238" fill="none" stroke="#2b2718" stroke-linecap="round" stroke-linejoin="round" stroke-miterlimit="2.4142" stroke-width="1.152"/>
  <path d="m239.11,295.93s2.986-1.279 5.65-1.064c2.771.318 11.836.531 13.54-.427 1.706-.961 7.889-2.986 12.794-1.492 4.904,1.492 11.516,2.665 13.219,2.665 1.709,0 3.412,2.237 3.412,2.237" fill="none" stroke="#2b2718" stroke-linecap="round" stroke-linejoin="round" stroke-miterlimit="2.4142" stroke-width="1.152"/>
  <path d="m241.34,300.3c1.493-.212 3.945-.958 6.613-.425 2.77.425 9.378-.321 11.299-1.067 2.025-.746 7.356-2.452 11.834-1.491 4.371,1.064 10.024,2.558 11.94,2.558 2.026,0 3.199,1.385 3.199,1.385" fill="none" stroke="#2b2718" stroke-linecap="round" stroke-linejoin="round" stroke-miterlimit="2.4142" stroke-width="1.152"/>
  <path d="m244.33,305c1.388-.212 3.84-.534 7.144-.212 3.199.212 9.276-.961 11.729-2.025 2.451-.96 5.865-2.133 9.277-1.173 3.517.958 10.34.746 11.831,2.664" fill="none" stroke="#2b2718" stroke-linecap="round" stroke-linejoin="round" stroke-miterlimit="2.4142" stroke-width="1.152"/>
  <path d="m247.96,308.62s4.903.746 8.635,0c3.622-.746 11.301-4.158 15.671-2.879 4.478,1.173 8.637,1.173 9.595,2.664" fill="none" stroke="#2b2718" stroke-linecap="round" stroke-linejoin="round" stroke-miterlimit="2.4142" stroke-width="1.152"/>
  <path d="m259.47,314.06s11.3-2.452 14.819-.215" fill="none" stroke="#2b2718" stroke-linecap="round" stroke-linejoin="round" stroke-miterlimit="2.4142" stroke-width="1.152"/>
  <path d="m214.37,230.58s2.452-1.706 5.119-1.706c2.664,0 9.382-.212 12.581-2.88 3.09-2.771 8.849-5.968 13.432-4.477 4.692,1.491 11.091,2.452 16.953,2.452 5.969,0 11.515.533 13.968,2.24" fill="none" stroke="#2b2718" stroke-linecap="round" stroke-linejoin="round" stroke-miterlimit="2.4142" stroke-width="1.152"/>
  <path d="m212.35,226.21s1.811-1.282 3.943-1.282c2.237,0 9.381.534 12.047-1.491 2.772-1.919 7.142-7.036 13.007-5.544 5.863,1.385 15.46,2.346 20.152,2.346s9.061.318 10.233,1.279" fill="none" stroke="#2b2718" stroke-linecap="round" stroke-linejoin="round" stroke-miterlimit="2.4142" stroke-width="1.152"/>
  <path d="m210.85,221.73s2.239-1.704 5.013-1.704c2.664,0 7.356.746 10.981-1.918 3.731-2.667 8.103-5.438 13.752-3.734 5.65,1.813 13.541,2.027 16.953,2.027s7.356,0 9.063,1.171" fill="none" stroke="#2b2718" stroke-linecap="round" stroke-linejoin="round" stroke-miterlimit="2.4142" stroke-width="1.152"/>
  <path d="m109.46,213.52s4.265,2.344 8.848,3.625c0,0-.745-1.707.534-1.707 1.172,0 5.223.321 6.93,1.494 1.493,1.276 3.093,2.983 2.026.212-1.067-2.879.426-1.918.854-.96 .532,1.066 2.345,3.413 3.73,4.265 .853.427.853-6.184 1.28-3.838 .531,2.343.745,4.158 2.345,7.141 1.599,2.88 3.092,9.172-2.986,9.917-6.182.746-9.382-.108-13.433-.746s-12.794-1.706-26.653-.854-24.735,2.985-26.121,2.561c-1.387-.321-3.945.103-1.601-4.48 .748-1.492-.638-1.492-2.238-1.919-1.599-.318-6.61-.215-7.037-1.6-.32-1.279 3.198-2.559 4.265-3.411 0,0 1.601-1.173.427-1.918-1.066-.749-1.173-.108-2.56-.108s-1.813-1.171.32-2.131c2.026-.958 11.089-5.438 13.008-5.865 1.811-.531 5.864-1.064 11.3-.318 5.331.64 18.337,3.304 22.603,4.477 4.38,1.08 8.44.34 4.17-3.82z" fill="#673927"/>
  <path d="m54.447,228.44c.321-1.704 3.732-4.583 5.119-4.156 1.386.425 1.705,2.344 0,2.771-1.706.319-3.945,1.173-4.479,1.705-.532.54-.745.22-.64-.32z" fill="#a65620"/>
  <path d="m61.806,234.84c.212-1.707 3.304-4.798 4.69-4.48 1.492.321 1.918,2.24.213,2.773-1.6.425-3.732,1.495-4.266,2.025-.425.64-.745.32-.637-.32z" fill="#a65620"/>
  <path d="m54.875,220.66c.853-.746 5.437-3.837 5.65-2.238 .319,1.601-4.584,2.346-5.544,2.559-.959.32-.106-.32-.106-.32z" fill="#a65620"/>
  <path d="m49.865,202.86c.638-1.6 4.37-4.052 5.65-3.413 1.386.64 1.386,2.665-.427,2.771-1.705.108-4.051.642-4.585,1.066s-.852.1-.638-.43z" fill="#a65620"/>
  <path d="m55.301,211.6c.213-1.707 3.305-4.904 4.691-4.586 1.492.321 1.919,2.24.212,2.774s-3.731,1.597-4.265,2.131c-.424.54-.744.22-.638-.31z" fill="#a65620"/>
  <path d="m55.728,195.5c.746-1.173 4.051-2.131 4.583-1.919 .533.109-1.173,1.815-1.919,2.241-.958.53-2.985.32-2.664-.32z" fill="#a65620"/>
  <path d="m113.3,227.7c-2.878-.428-10.022-2.24-3.199-2.025 6.932.318 14.713,2.025 15.779,0 .961-1.922 1.387-3.413-.319-7.038-1.706-3.731.959-.531 2.239,0 1.278.427-.533-1.813-.214-3.198 .214-1.494 1.919,2.88 3.198,3.838 1.174.96-.534,2.24-.534,5.65-.01,3.51 1.7,5.01-16.96,2.77z" fill="#4b3326"/>
  <path d="m31.952,104.56c-.106-.319-2.878-.958-3.306-2.559-.319-1.6-.853-.746-.746.319 .106,1.067 1.387,3.519 3.306,4.159 0,0 .426.321.212.748 .001-.01.961-1.39.534-2.67z" fill="#4b3326"/>
  <path d="m26.941,109.04s-3.838-2.986-3.412-6.932c0,0-.96-1.813-.96.106s.748,4.904 1.279,5.332c.535.533-.319.958-.319.958s2.026.74 3.412.53z" fill="#4b3326"/>
  <path d="m23.849,138.78s-1.492-1.918-1.385-4.159-.959-1.707-.959-.212c0,1.385.32,5.223.64,6.717s.425,2.558.105,2.983c0,0 1.493.215.534-4.583l-.32-1.706 1.385.96z" fill="#4b3326"/>
  <path d="m17.985,142.3s-1.599-3.625-1.173-7.145c.535-3.304-.959-.746-.959,0 0,.96.107,3.198.213,4.159 .214.855-1.066.212-1.066.212s1.386,1.7 2.985,2.77z" fill="#4b3326"/>
  <path d="m53.702,103.49s-3.519-1.598-5.65-1.598c-1.066,0-2.665-.108-4.478-.533-1.599-.321-3.306-.64-4.478-1.279-1.812-.96-1.173-2.774-1.6-3.838-.212-.321-.533-.533-.959-.642 .106-.106 3.198-2.556.959-2.876 .106-.106 2.025-3.519-2.558-2.985 3.092-.319 3.837-.855 4.051-1.386 .959,0 2.772,0 3.731-.106 1.919,0 4.159,0 7.57-.854 .959-.212 1.813-1.064 2.345-1.492-.213.212 4.372-2.665 3.093-9.917 .106.108 2.025,1.494 2.665,6.398 .107,1.173.214,2.559 0,3.946-.213,3.198-.746,5.544-1.492,7.142-.641,1.918-1.386,2.985-1.92,3.198 0,.213 1.92,2.984-1.279,6.822z" fill="#473024"/>
  <path d="m53.702,103.49s-3.519-1.598-5.332-1.598c-.959.106-2.238-.108-3.837-.745-1.493-.428-2.986-.854-3.946-1.601-1.599-.854-.959-2.558-1.278-3.625-.106-.321-.32-.534-.748-.64 .107-.212 2.88-2.452 1.067-2.879 .106-.319 1.707-3.411-2.239-3.092 .426-.106 1.493-.427 1.599-.958 1.599,0 3.306-.106 4.371-.106 .853,0 5.01-.108 7.57-1.066 .853-.319 2.132-1.707 2.666-2.24 1.706-1.704 3.305-5.329 2.132-9.061 0,.319 2.451,1.705 2.665,7.46 0,1.066 0,2.346-.106,3.84-.32,3.091-.959,5.223-1.6,6.611-.533,1.704-1.172,2.771-1.6,3.198 .001.325 1.601,2.883-1.384,6.509z" fill="#422c21"/>
  <path d="m53.702,103.49s-3.519-1.598-5.01-1.492c-.747,0-1.813-.319-3.199-1.173-1.279-.533-2.665-1.064-3.518-1.813-1.281-.852-.64-2.346-.853-3.519-.106-.212-.214-.531-.534-.64 .214-.212 2.56-2.237 1.066-2.771-.318.746.535-3.837-2.665-3.731 .854,0 2.986,0 4.478-.106 1.173,0 4.052-.212 5.118-.427 1.599-.321 2.666-.533 4.372-2.134 .532-.53 1.278-1.491 1.599-1.918 .106-.106 2.346-4.156 1.173-7.888 0-.108 3.092,2.559 2.559,8.315-.107,1.173 0,2.346-.107,3.731-.426,2.985-1.066,5.119-1.705,6.292-.534,1.382-.854,2.449-1.387,3.088-.002.318 1.385,2.881-1.387,6.181z" fill="#3d291f"/>
  <path d="m53.702,103.49s-3.519-1.492-4.798-1.492c-.534,0-1.279-.427-2.559-1.492-1.066-.642-2.238-1.172-2.879-2.027-1.065-.852-.533-2.237-.533-3.304 0-.212-.106-.534-.319-.64 .213-.318 2.346-2.24 1.066-2.773 .213-.533.213-2.982-1.492-3.41 1.066,0 3.091-.106 4.37-.319 .96-.108 4.052-.321 5.331-1.494 1.173-.748 1.707-1.385 2.666-2.879 .426-.425.747-1.386.96-1.919 .64-1.386.64-4.265.213-5.863 0,0 3.41,2.984 2.559,9.167-.107,1.173-.107,2.346-.214,3.625-.533,2.986-1.172,4.904-1.918,5.865-.426,1.173-.534,2.238-.959,2.986-.001.53 1.064,2.875-1.494,5.965z" fill="#3a271d"/>
  <path d="m53.702,103.49s-3.625-1.492-4.479-1.492c-.319.106-.853-.427-1.918-1.706-.959-.852-2.026-1.386-2.452-2.346-.852-.746-.213-2.025 0-3.198 0-.213-.106-.428-.213-.64 .321-.318 2.026-2.025 1.067-2.664 .319-.64.533-2.24-.959-3.198 1.385-.108 3.092-.321 4.051-.534 .425-.105 2.026-.215 3.731-1.6 1.599-1.707 1.813-2.025 2.559-3.304 .319-.427 1.387-3.307.641-6.826-.107-.531 2.238,2.561 2.559,4.798 .106.748-.107,2.455-.107,5.119 0,1.173-.106,2.346-.319,3.519-.533,2.876-1.281,4.689-1.92,5.544-.32.958-.32,1.918-.639,2.877-.003.642.744,2.883-1.602,5.653z" fill="#35241b"/>
  <path d="m53.702,103.49s-3.625-1.492-4.265-1.385c-.107.106-.32-.64-1.173-2.131-.853-.96-1.706-1.601-1.919-2.452-.639-.854-.106-2.027.32-3.092 .106-.212.106-.427 0-.639 .319-.428 1.705-1.919 1.173-2.667 .213-.639.746-2.131-.64-3.089 1.066-.215 3.518-.642 4.264-1.173 1.173-.854 2.772-2.349 3.519-3.84 .426-.958.747-1.601 1.067-3.41 .106-.428-.107-3.52-.32-3.628 1.173.749 2.665,5.013 2.665,5.971-.106.854-.213,2.452-.213,4.907-.106,1.064-.213,2.237-.426,3.304-.64,2.879-1.386,4.477-2.025,5.117-.321.746-.107,1.707-.321,2.879-.001.749.426,2.773-1.706,5.333z" fill="#302118"/>
  <path d="m53.702,103.38s-3.625-1.386-3.945-1.279c0,.106.108-.64-.64-2.453-.533-1.064-1.279-1.812-1.386-2.664-.32-.746.214-1.813.747-2.88 .106-.212.214-.427.214-.639 .32-.64 1.491-1.813 1.173-2.559 .318-.958 1.065-2.665 0-3.413 1.491-.424 2.238-1.17 2.878-1.597 .64-.533 2.026-2.24 2.238-2.879 1.493-2.877 1.067-4.583.747-7.038 0-.212 1.492,1.921 1.812,2.667 .747,1.173.747,2.453.96,4.478 .106,1.066-.213,2.452-.321,4.585-.213,1.171-.319,2.241-.532,3.198-.746,2.771-1.493,4.371-2.24,4.798-.105.427.214,1.491 0,2.664 0,.966.214,2.882-1.705,5.012z" fill="#2c1e16"/>
  <path d="m53.702,103.38s-3.731-1.386-3.625-1.173c.213,0 .533-.852 0-2.771-.426-1.279-.96-2.025-.854-2.986-.106-.746.32-1.706 1.173-2.664 .106-.215.213-.428.32-.746 .428-.642 1.173-1.6 1.173-2.455 .426-1.17 1.279-2.556.108-4.05 .959-1.066 1.811-1.6 2.131-2.239 .319-.427 1.067-1.492 1.279-2.237 .427-1.067.854-3.413.321-5.972 0-.108.212.106.639.64 1.067.958 2.24,4.371 1.92,7.356 0,1.173.106,2.558-.107,4.477-.319,1.173-.532,2.24-.746,3.092-.747,2.664-1.6,4.158-2.239,4.371-.107.214.426,1.278.32,2.664 0,1.071-.108,2.77-1.813,4.69z" fill="#271b14"/>
  <path d="m55.728,75.982s4.477,3.519 2.345,13.437c-.959,4.689-2.239,6.929-3.198,7.035 0,0 2.238,3.092-1.173,6.93 0,0-3.731-1.279-3.305-1.173 .32.106.959-.852.534-3.091-.32-2.238-1.173-3.092 1.279-5.757s2.985-8.208 2.559-9.915c0,0 1.811-2.773.959-7.465z" fill="#231812"/>
  <path d="m62.977,209.04c.64,1.064.213,1.173 3.839.425 1.705-.319 5.65-1.171 9.915-2.131 5.971-1.494 11.302-2.452 13.22-2.667 .64,0 2.878.108 3.731.108 1.279-.108 3.306,0 4.372.106 1.492.106 3.198.212 3.518.321 0-.109-3.305-5.547-3.518-7.039-.214-1.279-.747,0-.959.852-.214.64-1.28-2.558-.959-6.61 0,0-8.103,0-13.753-.319h-3.838c-3.306-.106-8.635-.639-12.687,1.919-1.707,1.067-3.091,2.559-4.158,4.905-.427,2.68-1.599,5.56 1.279,10.14z" fill="#452f23"/>
  <path d="m68.628,208.3c.64.637.532.531 3.624-.108 1.601-.212 5.118-1.064 8.636-1.813 4.692-1.279 8.743-1.598 10.235-1.707 .64,0 2.239,0 3.306.108s2.666-.108 3.518.106c1.387.212 3.519.321 3.625.212-.105-.106-3.197-5.332-3.518-6.717-.214-2.024-.959.746-1.173.534-.426-.425-.853-3.625-.746-6.505 0,0-7.463,0-12.368-.212-1.386-.106-2.559,0-3.411.212-2.878.109-7.251,0-10.662,2.561-1.387,1.064-2.453,2.45-3.198,4.583-.319,2.68-.105,6.51 2.134,8.76z" fill="#3f2b20"/>
  <path d="m74.279,207.65c.427.215 1.173,0 3.731-.64 1.706-.424 4.051-.96 7.036-1.491 4.159-.746 4.691-.854 6.504-.746h3.306c.853,0 1.918.106 2.56.106 1.172,0 4.157.321 4.157.321-.105-.215-2.985-5.653-3.625-7.465-.319-.746-.532,1.494-1.066,1.279-.212-.105-.853-4.265-.853-6.61 0,0-6.717,0-10.874-.212-1.28,0-2.241.212-2.986.427-2.346.427-5.971.852-8.635,3.304-.959,1.067-1.813,2.452-2.346,4.159 .105.105-.426,1.813-.319,2.346 .107,1.8.535,3.72 3.413,5.21z" fill="#3a271d"/>
  <path d="m78.438,205.52c.746.64.959,1.067 1.598.958s1.705-.319 3.838-.853c1.6-.321 3.304-.424 5.437-.852 3.305-.108 4.585,0 5.65,0 .428,0 1.281.106 1.708.106s.853,0 1.172,0c.64,0 3.838.425 3.731.212-.214-.212-3.092-5.65-3.518-7.036-.426-1.815-.959,2.559-1.493.106 .107.321-.533-4.052-.533-5.758 0,0-6.078,0-9.596-.106-1.066-.106-1.918.215-2.559.639-1.813.639-4.477,1.601-6.396,3.946-.748,1.064-1.281,2.237-1.495,3.837 .325,2.13 1.499,3.94 2.458,4.79z" fill="#34231a"/>
  <path d="m96.028,192.41c0,1.172.107,2.879.107,3.519 0,.428.212.64.319,1.279 .107,1.386.214,1.494.426,1.813 .214.534.853-3.092 1.386-.212-.106-.428 1.28,2.664 1.706,3.625 .107.318 1.706,2.665 1.599,2.665-1.599-.106-6.183-.319-7.996-.319-3.197-.321-3.73.106-5.33.213s-1.918.318-2.665.427c-.64.106-.64.212-1.494.106-.746,0-.533-.533-1.386-.427-.107,0-.533-.319-.854-.534-.746-.427-.639-.427-1.066-1.173-.211-.427-.211-.852-.211-1.279 .211-.212.211-.64.106-.852 0-1.173.212-2.346.64-3.413 1.279-2.346 2.985-3.732 4.371-4.583 .533-.64 1.173-.96 2.027-.96 2.879.09 8.316.09 8.316.09z" fill="#2e1f17"/>
  <path d="m96.028,192.41c0,.642.107,2.027.214,2.879 0,.108-.107.212-.107.639 .107,1.388.533,2.773.746,3.092 .214.106.214-.212.534-.852 .532-1.706.959,1.173 1.386,1.919 .212.32.319.746.426.958 .639,1.281 1.812,3.2 2.452,4.052-.746.212-6.396-.319-7.997-.427-1.066.108-1.599,0-2.239,0-.853,0-.853,0-1.707.108-.532,0-.852.106-1.491.106-.213,0-.747-.321-.854-.321-.214,0-.319-.212-.959-.639-.533-.319-.533-.852-.747-1.279 0-.212-.105-.64-.212-.746-.319-.961-.428-2.025-.214-3.092 .533-2.24 1.386-4.159 2.239-5.332 .319-.64.959-1.067 1.599-1.067h6.93z" fill="#281b14"/>
  <path d="m96.028,192.41s.107,5.226.64,6.184c.533,1.173.426-.213.747-.64 .639-.746.425-.106.959,1.173 .426,1.066 2.559,5.331 3.304,6.08 0,0-4.905-.536-8.528-.536 0,0-3.626-1.279-3.945-4.904-.427-3.519-.214-7.356 1.279-7.356 1.384.01 5.542.01 5.542.01z" fill="#231812"/>
  <path d="m91.124,126.52c-1.173,5.01-9.063,7.997-11.088,8.851-1.92.852-4.798,1.171-4.798,1.171s-2.026,4.373-.746,8.741 1.386-.852 1.705.321c.214,1.279.746,6.078 2.666,8.529 0,0 1.28-.746 1.918.534 .641,1.386 3.945,8.423 7.358,10.448 0,0 .106-2.134 2.132-.746 1.919,1.279 3.198,3.198 5.437,4.904 2.132,1.707 4.479,2.453 5.118,3.517" fill="none" stroke="#331c13" stroke-linecap="round" stroke-linejoin="round" stroke-miterlimit="2.4142" stroke-width="2.376"/>
  <path d="m91.124,127.05c-.959,4.583-8.315,7.463-10.128,8.636-1.706.852-4.265,1.173-4.265,1.279s-1.919,4.159-.533,8.314c0,0 1.173-.746 1.387.321 .105.321.105.64.212,1.067 .319,1.919 1.066,5.117 2.453,7.036 0,0 1.28-.637 1.812.639 .747,1.388 3.839,7.784 7.144,9.596 0,.106.214-1.812 2.027-.533s2.983,2.985 5.223,4.479c2.025,1.598 4.265,2.343 4.903,3.41" fill="none" stroke="#341e15" stroke-linecap="round" stroke-linejoin="round" stroke-miterlimit="2.4142" stroke-width="2.376"/>
  <path d="m91.232,127.59c-.96,4.159-7.678,7.036-9.277,8.421-1.493.855-3.839,1.282-3.839,1.388 .108.212-1.598,3.944-.426,7.784 .107.103 1.173-.643 1.387.424 .106.321.106.64.212,1.067 .427,1.813 1.067,4.904 2.452,6.611 0,0 1.173-.533 1.707.637 .746,1.387 3.73,7.252 6.824,9.063 .107,0 .212-1.704 1.919-.531 1.811,1.173 2.984,2.771 4.904,4.156 2.025,1.494 4.051,2.134 4.798,3.2" fill="none" stroke="#382016" stroke-linecap="round" stroke-linejoin="round" stroke-miterlimit="2.4142" stroke-width="2.376"/>
  <path d="m91.232,128.12c-.854,3.733-6.825,6.504-8.211,8.21-1.491.746-3.41,1.279-3.41,1.492 0,.32-1.387,3.733-.322,7.359 0,.103 1.067-.534 1.281.424 .106.321.106.64.211.961 .428,1.813 1.066,4.583 2.346,6.29 0,.106 1.066-.321 1.599.64 .854,1.494 3.625,6.823 6.611,8.423 .106,0 .318-1.495 1.813-.427 1.705,1.067 2.771,2.452 4.69,3.837s3.838,2.025 4.585,2.985" fill="none" stroke="#392218" stroke-linecap="round" stroke-linejoin="round" stroke-miterlimit="2.4142" stroke-width="2.376"/>
  <path d="m91.337,128.65c-.747,3.198-6.183,6.075-7.356,7.994-1.28.748-2.986,1.279-2.986,1.494 .107.428-1.066,3.732-.107,6.93 .107.109.959-.319 1.173.533 .107.212.107.64.214.961 .426,1.706 1.066,4.262 2.239,5.862 .107.106 1.066-.212 1.599.746 .853,1.388 3.518,6.292 6.291,7.678 .107,0 .319-1.173 1.706-.318 1.598.958 2.771,2.237 4.477,3.516 1.706,1.173 3.625,1.813 4.372,2.773" fill="none" stroke="#3c241a" stroke-linecap="round" stroke-linejoin="round" stroke-miterlimit="2.4142" stroke-width="2.376"/>
  <path d="m91.337,129.19c-.641,2.771-5.438,5.542-6.397,7.781-1.066.746-2.559,1.279-2.452,1.601 .105.53-.959,3.519 0,6.502 .105.109.853-.212 1.065.533 .108.212.108.534.214.852 .426,1.707 1.066,4.159 2.239,5.544 .107.215.959-.104 1.386.749 .959,1.491 3.412,5.756 6.078,7.035 .212.106.426-.958 1.6-.212 1.492.852 2.559,2.025 4.265,3.198 1.599,1.067 3.304,1.707 4.051,2.452" fill="none" stroke="#3d261b" stroke-linecap="round" stroke-linejoin="round" stroke-miterlimit="2.4142" stroke-width="2.376"/>
  <path d="m91.337,129.82c-.427,2.24-4.585,5.013-5.438,7.465-.854.746-2.026,1.279-2.026,1.704 .107.64-.64,3.307.213,6.077 .107.109.747-.106.959.533 .108.212.108.534.214.852 .533,1.601 1.067,3.734 2.132,5.12 .107.213.854,0 1.28.746 1.065,1.494 3.411,5.223 5.864,6.505 .212.106.425-.746 1.492-.109 1.387.748 2.452,1.706 4.051,2.773 1.492.96 1.492.533 2.346,1.388" fill="none" stroke="#40281c" stroke-linecap="round" stroke-linejoin="round" stroke-miterlimit="2.4142" stroke-width="2.376"/>
  <path d="m91.443,130.36c-.425,1.81-3.944,4.477-4.478,7.248-.747.746-1.706,1.279-1.599,1.813 .107.749-.426,3.092.319,5.544 .107.215.641.106.854.64 0,.212.106.534.213.852 .534,1.495 1.173,3.413 2.132,4.692 .106.215.747.215 1.066.852 1.173,1.494 3.306,4.585 5.65,5.759 .214.106.534-.533 1.387,0 1.387.746 2.346,1.601 3.838,2.346 1.386.958 1.599.746 2.452,1.491" fill="none" stroke="#432a1e" stroke-linecap="round" stroke-linejoin="round" stroke-miterlimit="2.4142" stroke-width="2.376"/>
  <path d="m91.443,130.89c-.32,1.388-3.198,4.052-3.518,6.93-.533.748-1.28,1.494-1.173,2.027 .213.852-.213,2.985.534,5.116 .105.215.532.106.746.64 0,.212.107.534.213.746 .532,1.494 1.173,3.307 2.026,4.374 .107.318.639.318 1.066.852 1.173,1.495 3.199,4.05 5.331,5.117 .212.106.533-.319 1.386.106 1.173.639 2.132,1.388 3.518,2.133 1.173.64 1.813.64 2.667,1.279" fill="none" stroke="#452c20" stroke-linecap="round" stroke-linejoin="round" stroke-miterlimit="2.4142" stroke-width="2.376"/>
  <path d="m91.55,131.42c-.212.854-2.452,3.519-2.665,6.823-.32.64-.746,1.386-.639,2.025 .106.96 0,2.773.639,4.586 .106.212.426.321.534.746 .105.212.212.534.318.746 .535,1.385 1.173,2.879 1.919,4.052 .214.212.641.321.96.746 1.28,1.601 3.092,3.519 5.117,4.477 .321.109.641-.106 1.28.215 1.066.533 2.025,1.173 3.306,1.812 1.066.64 1.813.852 2.772,1.492" fill="none" stroke="#462e21" stroke-linecap="round" stroke-linejoin="round" stroke-miterlimit="2.4142" stroke-width="2.376"/>
  <path d="m91.55,131.96c-.106.425-1.705,2.985-1.705,6.611-.108.639-.321,1.385-.214,2.025 .214,1.067.319,2.667.853,4.265 .107.212.32.424.426.746 .108.212.213.427.322.64 .532,1.491 1.172,2.665 1.918,3.625 .212.321.532.534.746.958 1.279,1.494 2.985,2.88 4.905,3.734 .319.106.639.106 1.172.318 .96.533 1.92.961 3.093,1.494 .959.534 2.025.958 2.985,1.492" fill="none" stroke="#4a3024" stroke-linecap="round" stroke-linejoin="round" stroke-miterlimit="2.4142" stroke-width="2.376"/>
  <path d="m58.073,203.07s5.864-.321 6.077-.108c.534,1.281-4.584,3.091-4.584,3.091s-.107-2.23-1.493-2.98z" fill="#231812"/>
  <path d="m57.113,198.38s5.117-1.279 5.117-1.812c0-.425-4.157.106-4.157.106l-.96,1.7z" fill="#231812"/>
  <path d="m62.977,228.23s5.544-2.558 7.464-1.919c2.024.64-2.666,1.064-5.012,2.877 0,0-.852-.64-2.452-.96z" fill="#231812"/>
  <path d="m60.952,222.37s4.051-1.492 5.223-2.344c1.28-.854 3.199-2.133.96-1.282-2.131.854-5.97,2.561-6.716,2.453 0-.01.852.42.533,1.17z" fill="#231812"/>
  <g fill="none">
   <path d="m33.125,130.04s8.103-1.279 13.114-.96c4.263.321 15.245.746 21.002-.212 1.387-.212 2.453-.96 3.2-1.279 0,0-3.094-2.24-2.88-2.24 .426,0 7.996-.318 13.327-1.173 1.813-.318 2.773-.852 3.838-1.279 .64-.212 1.28-.425 1.601-.747 .105,0-1.173-1.493-2.773-1.597 .427,0 5.971-2.455 8.316-4.586 2.24-1.706 3.413-3.519-.532-3.837 .212-.321 2.665-2.559 4.371-4.586 2.879-2.985 5.65-6.608 1.173-5.65 .214-.427 3.625-7.674 3.625-10.554 .107-.215 1.813,1.171 1.706,1.064l.533.427c.106,0-.853,5.759-.959,11.515 0,1.279 0,2.664.214,3.943 .532,5.332.639,11.516 6.29,16.953 2.238,2.346 4.689,3.947 7.676,5.544 .747.321 1.6.534 2.879,1.067 0,0-1.601-2.24.96-1.491 2.878.85 10.446,2.449 21.003-.215" stroke="#503628"/>
   <path d="m32.486,130.04s7.57-1.6 13.006-1.385c4.69.106 15.886.534 21.004-.215 1.173-.212 1.918-1.385 2.664-1.706 0,0-2.664-1.919-2.238-1.919 1.065,0 8.635-.321 13.434-1.17 1.598-.321 1.812-.96 2.878-1.388 .533-.106 1.066-.318 1.492-.639 .107,0-.853-1.386-2.025-1.386 .96-.106 6.504-2.346 8.209-4.586 1.918-1.385 3.414-3.304.213-3.943 .532-.428 2.878-2.665 3.946-4.371 2.559-2.667 5.224-6.396 1.599-6.077 .426-.854 3.625-7.784 3.625-10.663 .106-.212 1.6.854 1.493.64 0,0 .426.321.426.427 .213.105.319,5.971.213,11.196 0,1.173 0,2.45.106,3.838 .427,5.329.534,11.833 5.864,17.271 2.452,2.985 4.798,4.583 7.465,5.862 .639.321 1.384.215 2.771.854 .214.106-1.065-1.813 1.28-1.067 3.092.96 10.662,2.771 21.108.321" stroke="#543929"/>
   <path d="m31.846,129.93s7.037-1.815 12.793-1.706c5.226,0 16.739.427 21.11-.213 .96-.215 1.386-1.707 2.026-2.027 0,0-2.026-1.598-1.493-1.707 1.599,0 9.275-.318 13.54-1.064 1.494-.32.959-1.279 1.813-1.494 .533-.212.959-.425 1.385-.64 .321,0-.426-1.173-1.173-1.279 1.494-.106 7.144-2.241 8.103-4.372 1.705-1.172 3.412-3.197 1.067-4.052 .852-.746 3.092-2.983 3.411-4.371 2.132-2.237 4.798-5.971 2.025-6.502 .533-1.172 3.518-7.783 3.625-10.663 0-.318 1.387.427 1.173.321l.426.212c.321.321 1.493,6.29 1.493,10.982v3.731c.319,5.225.213,12.155 5.224,17.593 2.772,3.516 5.118,5.116 7.356,6.29 .533.215 1.067-.213 2.772.639 .214.106-.746-1.494 1.492-.746 3.199,1.173 10.769,3.092 21.324.746" stroke="#593c2a"/>
   <path d="m31.207,129.93s6.503-2.134 12.687-2.24c5.65-.106 17.377.321 21.004-.213 .852-.108.959-2.027 1.491-2.346 0,0-1.491-1.279-.746-1.388 2.132,0 9.914-.319 13.54-.958 1.493-.427.214-1.492.853-1.707 .534-.106.959-.318 1.387-.531 .318,0 0-.96-.427-1.069 2.025-.212 7.677-2.131 7.996-4.262 1.387-1.067 3.413-3.092 1.813-4.053 1.173-1.066 3.306-3.304 2.984-4.477 1.813-1.813 4.373-5.653 2.347-6.826 .853-1.704 3.625-7.89 3.73-10.767 0-.427 1.067.106.96-.106 0,0 .212.213.319.213 .321.321 2.666,6.504 2.666,10.66v3.625c.214,5.119 0,12.476 4.69,17.911 2.986,4.161 5.226,5.653 7.145,6.613 .533.213.853-.534 2.664.425 .32.106-.318-1.067 1.814-.321 3.411,1.282 10.979,3.412 21.429,1.282" stroke="#5e3f2c"/>
   <path d="m30.459,129.93s6.077-2.453 12.581-2.667c6.183-.212 18.23.215 21.11-.212 .748-.106.427-2.452.854-2.665 0,0-.961-1.067.106-1.173 2.56,0 10.448-.32 13.54-.854 1.28-.425-.639-1.706-.105-1.919 .319-.106.746-.212 1.173-.427 .426,0 .426-.852.426-.958 2.559-.321 8.316-2.025 7.89-4.052 1.066-.852 3.305-2.877 2.559-4.263 1.492-1.281 3.519-3.519 2.452-4.373 1.494-1.491 4.052-5.332 2.879-7.142 .959-2.134 3.625-7.999 3.732-10.875 0-.534.853-.215.64-.534 0,0 .213.215.32.215 .426.425 3.837,6.715 3.837,10.339v3.519c.108,5.117-.211,12.794 4.159,18.232 3.2,4.796 5.332,6.183 6.823,6.929 .428.212.747-.746 2.666.212 .426.215.212-.639 2.132.106 3.625,1.494 11.088,3.625 21.536,1.815" stroke="#61412d"/>
   <path d="m29.82,129.93s5.544-2.773 12.475-3.2c6.717-.319 18.87.108 21.11-.213 .533,0-.107-2.773.32-2.876 0,0-.534-.854.746-.96 3.092,0 11.087-.213 13.541-.855 1.279-.427-1.492-1.813-1.067-2.024 .322,0 .641-.106 1.067-.212 .533-.109.959-.746 1.279-.855 3.093-.427 8.85-2.025 7.784-3.944 .746-.639 3.306-2.772 3.411-4.371 1.707-1.494 3.626-3.731 1.92-4.265 1.172-1.173 3.625-5.01 3.304-7.569 1.173-2.667 3.519-8.104 3.731-10.876 0-.639.533-.748.321-1.066l.212.215c.64.425 5.118,6.93 5.225,10.021 0,.746-.107,2.025-.107,3.411 0,5.01-.533,13.115 3.624,18.553 3.414,5.329 5.545,6.716 6.718,7.353 .214.109.428-1.17 2.56-.106 .426.321.532-.212 2.344.534 3.731,1.601 11.196,3.946 21.75,2.346" stroke="#66442f"/>
   <path d="m29.18,129.93s5.012-3.2 12.367-3.625c7.144-.533 19.617,0 21.004-.215 .426,0-.428-3.197-.321-3.304 0,0 .214-.534 1.601-.64 3.625,0 11.727-.212 13.54-.748 1.279-.425-2.238-2.022-1.918-2.131 .105-.106.532-.212.959-.212 .532-.106 1.278-.533 2.026-.748 3.517-.425 9.381-1.919 7.676-3.729 .532-.427 3.306-2.667 4.158-4.373 2.025-1.919 3.944-4.156 1.492-4.371 .747-.746 3.197-4.689 3.625-7.89 1.492-3.092 3.625-8.208 3.731-10.982 .107-.745.426-1.064.214-1.491 0,0 .105.106.212.106 .64.64 6.185,7.25 6.29,9.915 0,.534 0,1.706-.105,3.198-.214,5.014-.747,13.437 2.983,18.98 3.731,5.862 5.759,7.248 6.504,7.568 .214.106.214-1.494 2.667-.212 .425.318.853.106 2.558.852 3.945,1.813 11.408,4.265 21.856,2.879" stroke="#6b4830"/>
   <path d="m28.541,129.82s4.479-3.304 12.153-3.943c7.676-.64 20.364-.106 21.112-.319 .212,0-.961-3.519-.854-3.519 0,0 .64-.321 2.238-.321 4.157-.106 12.367-.321 13.647-.746 1.066-.533-3.092-2.24-2.985-2.346 .107,0 .426,0 .854-.106 .746-.106 1.705-.427 2.983-.534 4.051-.533 9.917-1.813 7.465-3.625 .212-.212 3.304-2.559 5.01-4.583 2.239-2.027 4.051-4.265.959-4.158 .426-.427 2.665-4.371 4.051-8.424 1.599-3.41 3.518-8.102 3.731-10.981 .107-.852.214-1.386-.105-1.919 0,0 .105.105.212.105 .747.749 7.25,7.466 7.463,9.597 .105.533 0,1.597-.105,3.091-.321,4.904-1.067,13.752 2.452,19.296 3.945,6.505 5.97,7.784 6.396,7.999 0,0-.106-1.919 2.453-.533 .639.318 1.386.533 2.878,1.279 4.051,1.919 11.515,4.583 21.964,3.41" stroke="#6f4b32"/>
  </g>
  <g fill="none">
   <path d="m87.073,41.546c.426.64-.32,2.879-1.918,5.865-3.093,5.438-9.383,12.9-11.835,15.458-1.705,1.707-4.798,2.346-7.463,2.559-2.24.215-4.158,0-4.372.109-1.492-2.773-4.905-2.455-5.544-2.346h-.106c-3.199-4.691-5.863-1.279-5.863-1.279-1.387-3.84-3.731-2.773-4.584-2.027-.426.215-.64.428-.747.428-1.173-1.919-2.132-.64-2.665.746-.64.854-1.067,2.773-1.067,2.773" stroke="#523728"/>
   <path d="m87.392,41.546c.321.534.107,2.667-1.492,6.08-2.666,5.223-8.635,12.473-11.621,15.35-1.813,1.813-4.691,2.667-7.144,3.095-2.025.318-3.944.212-4.37.318-1.813-2.025-5.118-1.919-5.652-1.707-.106,0-.106-.106-.106-.106-2.879-4.478-5.863-1.386-5.863-1.386-1.387-3.733-3.946-2.664-4.692-2.133-.32.106-.533.215-.639.215-1.279-1.919-2.559-.533-2.879.531-.959.32-1.386,2.345-1.386,2.345" stroke="#593c2a"/>
   <path d="m87.818,41.546c.214.427.321,2.455-1.066,6.184-2.345,5.119-8.104,12.154-11.515,15.461-1.918,1.919-4.584,2.983-6.823,3.411-1.918.427-3.625.533-4.265.746-2.344-1.385-5.543-1.385-5.863-1.276-.107,0-.107-.108-.107-.108-2.559-4.159-5.97-1.386-5.97-1.386-1.279-3.731-4.158-2.665-4.691-2.346-.32,0-.534,0-.64-.106-1.28-1.706-2.666-.32-2.986.534-1.173-.212-1.705,1.813-1.705,1.813" stroke="#60412c"/>
   <path d="m88.139,41.546c.212.321.639,2.24-.64,6.292-1.918,4.904-7.356,11.833-11.194,15.564-2.026,1.919-4.585,3.198-6.611,3.84-1.707.531-3.412.746-4.265.958-2.664-.64-5.756-.855-5.97-.747-.107,0-.107-.108-.107-.108-2.132-3.944-5.97-1.491-5.97-1.491-1.279-3.625-4.371-2.559-4.798-2.346-.32-.212-.533-.319-.639-.427-1.279-1.704-2.985-.106-3.092.427-1.386-.852-2.025,1.388-2.025,1.388" stroke="#66442f"/>
   <path d="m88.565,41.655c0,.212.854,1.919-.319,6.289-1.493,4.798-6.716,11.409-10.981,15.565-2.132,2.134-4.479,3.625-6.292,4.265-1.599.746-3.092,1.067-4.157,1.279-3.092.109-6.077-.212-6.184-.212s-.107-.106-.107-.106c-1.918-3.731-5.97-1.491-5.97-1.491-1.28-3.625-4.69-2.561-4.904-2.561-.214-.318-.428-.534-.64-.746-1.28-1.492-3.199.106-3.305.318-1.599-1.279-2.24.855-2.24.855" stroke="#6d4931"/>
  </g>
  <g fill="none">
   <path d="m7.644,17.239s4.157-1.919 5.01-2.131c.106-.109 0,.637.32.958 .213.106.427.106.959,0 1.066-.533 3.945-1.918 6.505-2.985 .746-.319 1.599-.427 2.559-.852 2.558-.96 5.969-2.133 7.888-2.561 0,0-.212,1.066 1.601.854 .212,0 .534-.105.853-.212 2.772-.534 12.9-2.988 14.606-2.88 .319,0 1.172.425 2.665.534 2.239.319 5.438.746 6.93.427 2.026-.32 6.93.319 10.129,1.598 .533.428 1.065.64 1.599.852" stroke="#513728"/>
   <path d="m7.644,17.027s4.051-1.919 5.224-2.346c.212-.106.106.531.426.746 .214.106.533.106.959-.106 1.173-.427 4.372-2.24 6.611-3.092 .533-.215 1.385-.108 2.558-.745 2.453-.961 6.291-2.24 7.997-2.561 0,0-.106,1.066 1.601.854 .212-.108.532-.108.852-.215 2.666-.639 12.687-3.092 14.82-2.985 .32.108 1.065.534 2.771.642 2.026.212 5.225.637 7.038.531 2.558,0 7.569.746 10.128,2.134 .32.746.64.852 1.066,1.064" stroke="#573a2a"/>
   <path d="m7.75,16.813s3.945-1.919 5.33-2.453c.214-.106.214.215.534.427 .213.106.533.106.96-.105 1.385-.534 4.797-2.667 6.61-3.413 .425-.106 1.385.215 2.558-.427 2.346-1.064 6.823-2.45 8.104-2.771 0,0 .106,1.173 1.705.852 .214,0 .533-.106.747-.106 2.665-.639 12.687-3.092 15.139-3.092 .214,0 .746.746 2.772.746 1.918.215 5.118.64 7.25.64 3.092.212 8.102,1.173 10.128,2.667 .107.958.107,1.064.532,1.279" stroke="#5d3e2c"/>
   <path d="m7.856,16.706s3.839-2.131 5.332-2.771c.32-.109.426.212.852.212 .107.106.427,0 .747-.109 1.6-.637 5.438-2.983 6.823-3.622 .214-.106 1.173.424 2.56-.321 2.239-1.067 7.249-2.665 8.209-2.773 0,0 .212,1.173 1.813.855 .106,0 .319-.106.639-.106 2.666-.64 12.581-3.304 15.352-3.198 .214,0 .641.958 2.88.958 1.706.106 4.904.533 7.356.746 3.518.321 8.741,1.494 10.128,3.2 0,1.171-.319,1.279 0,1.386" stroke="#62422d"/>
   <path d="m7.856,16.494s3.732-2.134 5.545-2.88c.319-.212.638-.106.959,0 .106,0 .425-.106.746-.212 1.813-.854 5.97-3.519 6.823-3.84 .214-.106 1.173.749 2.666-.212 2.132-1.066 7.676-2.773 8.316-2.879 0,0 .213,1.279 1.813.96 .106,0 .32-.108.533-.108 2.666-.746 12.581-3.304 15.673-3.304 .106,0 .426,1.067 2.985,1.067 1.491.106 4.691.427 7.355.852 4.159.533 9.383,1.919 10.13,3.731-.108,1.494-.64,1.494-.428,1.6" stroke="#68462f"/>
   <path d="m7.964,16.278s3.625-2.131 5.544-2.985c.532-.318.853-.318 1.173-.318 .105,0 .426-.106.746-.213 1.92-.96 6.397-3.946 6.823-4.052 .107-.106 1.067.958 2.772-.106 2.026-1.067 8.103-2.879 8.317-2.879 0,0 .426,1.279 1.918.96 .212-.108.32-.108.533-.215 2.665-.639 12.368-3.304 15.886-3.304 .107,0 .213,1.279 2.985,1.173 1.387,0 4.584.427 7.569.96 4.586.746 10.022,2.344 10.13,4.262-.322,1.707-1.067,1.707-.959,1.707" stroke="#6e4a31"/>
  </g>
  <g fill="none">
   <path d="m68.308,11.268c-1.492.215-3.624,1.385-3.518,2.452 0,.961 1.706,1.919 1.706,1.919-2.132-.427-5.438,0-6.717,1.067-1.173.958-1.173,2.343-7.037,4.691-.533.319-1.173.531-1.813.746-7.464,2.877-12.047,2.346-14.394,2.131-2.239-.106-3.092-.746-5.863.961-2.666,1.491-2.772,4.583-2.027,7.25 .214.533.32.958.534,1.386 1.067,2.773.32,3.731.32,3.731-5.224-5.864-4.157-7.462-4.051-8.529 0-.319 0-.746-.214-1.064-.534-1.388-2.132-3.734-3.198-5.013-.214-.319-.748-.534-1.387-.64-2.025-.318-5.97.215-8.316.64-.534.106-.959.215-1.279.215-2.239.746-1.493-.855-1.493-.855" stroke="#503627"/>
   <path d="m68.841,11.268c-1.813.427-3.304,1.707-2.984,2.771 .106.854 1.705,1.815 1.705,1.815-1.813-.427-5.118.318-6.717,1.173s-1.706,2.237-7.249,4.795c-.533.215-1.173.533-1.813.748-7.25,2.876-11.941,2.45-14.606,2.346-2.346-.215-3.412-.748-5.97.746-2.666,1.277-2.772,4.583-2.026,7.249 .107.533.32.96.426,1.494 .853,2.559-.106,3.625-.106,3.625-5.011-5.332-4.371-7.25-4.371-8.53 0-.321-.107-.746-.214-1.173-.426-1.279-2.026-3.731-3.199-4.905-.319-.32-.852-.427-1.492-.533-1.918-.318-6.077.213-8.317.533-.638.106-.959.106-1.278,0-1.92.425-1.173-1.067-1.173-1.067" stroke="#563a2a"/>
   <path d="m69.374,11.375c-2.026.427-2.985,1.813-2.452,2.879 .319.958 1.812,1.706 1.812,1.706-1.6-.321-4.904.64-6.929,1.385-1.92.64-2.132,2.24-7.464,4.798-.534.212-1.173.533-1.813.852-6.823,2.773-11.728,2.667-14.819,2.452-2.452-.105-3.625-.639-5.971.64-2.665,1.067-2.878,4.477-2.026,7.25 .107.534.213.96.32,1.388 .64,2.556-.533,3.622-.533,3.622-4.798-4.691-4.692-7.035-4.798-8.421 0-.427 0-.748-.212-1.069-.319-1.385-1.813-3.837-3.199-5.01-.319-.213-.852-.425-1.492-.425-1.919-.212-6.184.321-8.422.425-.534,0-.959-.104-1.173-.213-1.599.214-.853-1.384-.853-1.384" stroke="#5a3d2b"/>
   <path d="m69.908,11.483c-2.239.53-2.667,1.918-1.92,3.091 .427.852 1.707,1.598 1.707,1.598-1.173-.212-4.585.855-6.929,1.492-2.24.427-2.454,2.24-7.57,4.798-.534.321-1.173.534-1.813.854-6.503,2.877-11.622,2.877-14.927,2.665-2.665,0-4.157-.534-6.183.428-2.772.852-2.878,4.477-2.132,7.248 .107.536.213,1.069.32,1.494 .426,2.559-.959,3.625-.959,3.625-4.692-4.265-4.904-6.823-5.116-8.423 0-.425-.107-.852-.214-1.173-.321-1.171-1.707-3.837-3.305-4.905-.32-.212-.854-.318-1.493-.318-1.919-.212-6.291.318-8.423.318-.639-.106-.959-.212-1.172-.427-1.279-.104-.533-1.598-.533-1.598" stroke="#60412c"/>
   <path d="m70.441,11.589c-2.454.531-2.346,2.13-1.387,3.304 .533.746 1.813,1.385 1.813,1.385-.959-.106-4.372,1.279-7.037,1.707-2.666.318-2.986,2.133-7.89,4.798-.534.319-1.172.639-1.706.96-6.183,2.771-11.514,2.877-15.246,2.877-2.666-.106-4.372-.427-6.183.318-2.772.534-2.88,4.265-2.132,7.144 .105.534.105,1.067.105,1.494 .214,2.344-1.279,3.517-1.279,3.517-4.478-3.731-5.116-6.608-5.438-8.314-.106-.427-.214-.853-.214-1.173-.319-1.173-1.599-3.944-3.41-4.798-.321-.212-.853-.319-1.495-.319-1.918-.105-6.395.319-8.527.106-.534-.106-.854-.321-1.067-.533-.96-.319-.214-1.919-.214-1.919" stroke="#65442e"/>
   <path d="m70.973,11.695c-2.666.533-2.025,2.24-.854,3.413 .641.746 1.707,1.492 1.707,1.492-.534-.215-3.945,1.386-7.037,1.6-2.984.212-3.306,2.237-7.997,4.902-.533.32-1.173.642-1.813.96-5.758,2.876-11.407,3.092-15.353,3.092-2.772,0-4.798-.428-6.29.106-2.773.427-2.879,4.265-2.24,7.25 .107.533.107,1.066.107,1.492 0,2.345-1.707,3.519-1.707,3.519-4.265-3.198-5.33-6.396-5.757-8.317-.213-.425-.213-.958-.32-1.173-.105-1.173-1.385-3.943-3.411-4.795-.32-.215-.854-.319-1.599-.319-1.706.104-6.397.531-8.423.104-.639-.104-.959-.425-1.065-.746-.639-.64.106-2.131.106-2.131" stroke="#69472f"/>
   <path d="m71.506,11.801c-2.878.64-1.705,2.346-.319,3.625 .746.746 1.813,1.28 1.813,1.28-.321-.106-3.732,1.813-7.144,1.813-3.519.106-3.839,2.131-8.209,4.904-.64.425-1.173.746-1.813,1.067-5.438,2.771-11.301,3.198-15.566,3.198-2.878,0-5.116-.32-6.397,0-2.772.213-2.878,4.266-2.239,7.251 .106.533.106,1.064 0,1.597-.213,2.131-2.132,3.304-2.132,3.304-4.051-2.559-5.544-6.184-6.183-8.102-.106-.638-.214-1.064-.214-1.386-.106-1.067-1.173-3.943-3.412-4.69-.534-.215-1.065-.215-1.707-.215-1.705.106-6.503.534-8.528,0-.64-.212-.853-.531-.959-.958-.427-.854.426-2.452.426-2.452" stroke="#6f4b32"/>
  </g>
  <path d="m28.327,17.345c2.666-.96 4.371-2.559 6.184-4.265s4.904-2.664 4.904-2.664-.212,1.173.748.958c.959-.212 3.838-1.598 4.904-1.598 0,0-.747,1.064.64,1.279 1.386.106 4.371-.534 5.97-.321 0,0-2.559,1.494.213,1.919 2.879.321 4.798.96 4.798.96s-2.665.534-6.185,3.944c-3.624,3.307-7.996,5.653-14.286,4.371-6.184-1.279-4.159-2.559-6.929-2.344-2.879.32-4.372-.959-.961-2.239z" fill="#3a271d"/>
  <path d="m32.912,17.027c1.28-1.173 3.305-4.374 6.609-4.692 3.307-.321 8.317.318 9.277,1.067s1.173,2.771-.534,4.477-6.076,4.583-10.341,3.304c-2.026-.639-2.026-1.279-3.093-1.598-1.172-.215-4.797.319-1.918-2.558z" fill="#744e3a"/>
  <path d="m35.577,16.066c.534-.533 4.585-3.091 7.677-2.346 4.691,1.067 4.157,1.601 4.051,2.134-.106.424-.639,2.665-2.666,3.623-2.132.96-5.011,2.24-7.783.108-1.493-1.066-1.812-.854-2.346-.96-.426-.106-1.49-.106 1.067-2.559z"/>
  <path d="m37.39,20.119s1.279,1.491 4.371.746 5.011-1.918 5.544-4.052" fill="none" stroke="#d8c093" stroke-linecap="round" stroke-linejoin="round" stroke-miterlimit="2.4142" stroke-width=".36"/>
  <path d="m41.122,14.893c-1.173.427-1.173,1.067-.32,1.067 .746-.106 1.919-.106 2.453,0 .533.212 1.385-.106.426-.748-.853-.531-1.706-.637-2.559-.319z" fill="#fff"/>
  <path d="m4.339,36.535s.746,5.865 11.408,10.13c0,0-.426,1.064-.106,1.597 .212.64.746-.106 1.706-.637 .959-.643 3.304,0 5.542.424 2.24.534 5.971,1.279 7.358,2.134s5.01.958 4.264-.215c-.746-1.279-.746-2.986-2.559-2.877s-6.077-.748-10.128-1.172c-4.265-.533-10.982-1.706-17.485-9.384z" fill="#281b14"/>
  <path d="m86.327,40.909c-.96-.533-3.2,1.064-5.546,4.902-1.812,2.665-4.903,4.798-8.102,6.292-1.706.746-3.411,1.491-5.01,1.918-4.586,1.491-7.57.318-11.089-.854-.319-.106-.639-.212-.852-.212-2.132-.319-.747,1.6-.853,1.6-.106-.108-2.56-.96-2.666-.854-.64-.319-1.173-.534-1.493-.852-4.691-2.879-3.731-.212-3.837-.212-1.066-.642-1.813-.96-2.454-1.282-3.624-2.237-2.665,1.494-2.772,1.601-.532-.319-1.066-.64-1.491-1.067-2.56-1.918-5.864-2.344-5.864-2.344" fill="none" stroke="#503627" stroke-linecap="round" stroke-linejoin="round" stroke-miterlimit="2.4142" stroke-width="2.016"/>
  <path d="m86.219,40.694c-1.065-.533-3.199.961-5.649,4.477-1.921,2.455-5.013,4.692-7.996,6.077-1.706.747-3.306,1.388-4.905,1.919-4.479,1.388-7.57.427-10.982-.746-.32-.106-.639-.212-.959-.212-1.813-.427-.747,1.173-.959,1.173-.214-.109-2.454-.746-2.666-.746-.641-.215-1.173-.321-1.493-.533-4.158-2.773-3.625-.427-3.838-.427-1.065-.533-1.812-.64-2.346-.958-3.41-2.134-2.772,1.064-2.984,1.17-.64-.212-1.067-.425-1.493-.64-2.452-1.918-5.864-2.346-5.864-2.346" fill="none" stroke="#563a2a" stroke-linecap="round" stroke-linejoin="round" stroke-miterlimit="2.4142" stroke-width="2.016"/>
  <path d="m86.219,40.482c-1.173-.642-3.306.852-5.863,3.943-2.027,2.453-5.012,4.586-7.997,5.971-1.599.64-3.2,1.279-4.798,1.813-4.265,1.385-7.462.746-10.768-.533-.319-.106-.639-.213-.853-.321-1.706-.424-.959.854-1.279.854-.427-.106-2.452-.746-2.664-.533-.641-.213-1.067-.106-1.387-.321-3.838-2.556-3.518-.746-3.944-.746-1.067-.319-1.813-.212-2.24-.534-3.09-2.025-2.878.643-3.198.855-.64-.212-1.172-.212-1.493-.428-2.238-1.918-5.756-2.346-5.756-2.346" fill="none" stroke="#5a3d2b" stroke-linecap="round" stroke-linejoin="round" stroke-miterlimit="2.4142" stroke-width="2.016"/>
  <path d="m86.113,40.375c-1.28-.749-3.412.533-5.864,3.41-2.239,2.24-5.225,4.477-7.998,5.759-1.598.64-3.197,1.277-4.797,1.81-4.051,1.282-7.25.854-10.554-.424-.321-.109-.641-.212-.853-.321-1.601-.424-1.173.534-1.493.427-.533-.215-2.345-.534-2.666-.427-.745,0-1.173.109-1.387,0-3.41-2.452-3.41-1.064-3.944-.96-1.172-.319-1.919,0-2.133-.104-2.878-2.027-2.878.104-3.518.425-.64-.106-1.173,0-1.387-.213-2.025-1.918-5.223-2.027-5.223-2.027" fill="none" stroke="#60412c" stroke-linecap="round" stroke-linejoin="round" stroke-miterlimit="2.4142" stroke-width="2.016"/>
  <path d="m86.113,40.161c-1.387-.746-3.625.427-6.078,2.985-2.346,2.025-5.33,4.265-7.998,5.438-1.491.746-3.09,1.279-4.69,1.813-3.837,1.279-7.143,1.173-10.447-.212-.214-.215-.534-.215-.747-.428-1.386-.427-1.279.213-1.707.106-.746-.215-2.238-.427-2.558-.319-.853.104-1.173.425-1.387.319-2.984-2.237-3.41-1.388-3.944-1.279-1.279-.109-2.025.427-2.239.318-2.453-2.024-2.878-.318-3.625,0-.638.109-1.279.321-1.385.109-2.025-1.919-4.479-1.385-4.479-1.385" fill="none" stroke="#65442e" stroke-linecap="round" stroke-linejoin="round" stroke-miterlimit="2.4142" stroke-width="2.016"/>
  <path d="m86.113,39.948c-1.492-.854-3.731.319-6.292,2.559-2.452,1.918-5.33,4.159-7.889,5.223-1.491.642-3.092,1.282-4.691,1.815-3.625,1.173-7.037,1.277-10.234-.108-.214-.106-.533-.319-.747-.425-1.279-.536-1.492-.212-1.918-.321-.854-.215-2.239-.428-2.666-.106-.746.215-1.066.639-1.279.533-2.558-2.134-3.198-1.6-3.945-1.491-1.279-.109-2.026.637-2.132.637-2.239-1.918-2.984-.637-3.838-.319-.747.106-1.385.428-1.493.319-1.493-1.706-3.837-.958-3.837-.958" fill="none" stroke="#69472f" stroke-linecap="round" stroke-linejoin="round" stroke-miterlimit="2.4142" stroke-width="2.016"/>
  <path d="m86.006,39.84c-1.492-1.064-3.838,0-6.396,2.027-2.454,1.707-5.438,3.944-7.891,5.011-1.387.533-2.986,1.172-4.479,1.706-3.518,1.173-6.93,1.491-10.128,0-.212-.109-.534-.212-.747-.321-1.065-.533-1.598-.637-2.132-.746-1.066-.212-2.131-.212-2.559,0-.852.321-1.279.854-1.279.854-2.132-2.027-3.198-1.919-4.051-1.815-1.385.109-2.026,1.069-2.132,1.069-1.812-1.815-2.985-1.173-3.945-.748-.854.32-1.385.748-1.493.748-1.066-1.282-3.306-.748-3.306-.748" fill="none" stroke="#6f4b32" stroke-linecap="round" stroke-linejoin="round" stroke-miterlimit="2.4142" stroke-width="2.016"/>
  <g fill="none">
   <path d="m4.445,36.323s2.772,3.413 5.758,5.438c1.173.746 2.558,1.492 3.945,1.918 2.452.746 5.65,1.601 8.636,2.025 3.519.427 7.464.852 9.915,1.279 .107,0 .853.215.959.855" stroke="#37251b" stroke-width="1.656"/>
   <path d="m4.02,35.362s3.091,3.84 5.969,5.65c1.067.748 2.454,1.494 4.051,2.027 2.666.96 6.077,1.813 8.957,2.025 3.517.321 7.888.855 10.128,1.601 .214.106.959.427.959.96" stroke="#473021" stroke-width="1.728"/>
   <path d="m3.593,34.511s3.518,4.052 6.183,5.865c.959.637 2.453,1.385 4.157,2.025 2.772.958 6.397,2.025 9.277,2.025 3.41.212 8.314.746 10.447,1.813 .321.319.853.64.853,1.173" stroke="#563a28" stroke-width="1.8"/>
   <path d="m3.272,33.552s3.731,4.478 6.185,6.075c.96.64 2.559,1.386 4.371,2.134 2.984,1.067 6.823,2.24 9.595,2.131 3.412,0 8.743.64 10.77,2.028 .319.318.746.746.639,1.278" stroke="#65442d" stroke-width="1.944"/>
  </g>
  <path d="m6.044,28.646c1.066-.533 1.706-.106.959.64s-1.705-.213-.959-.64z" fill="#281b14"/>
  <path d="m8.284,28.966c1.172-.321 1.918,0 1.172.746-.747.64-2.132-.639-1.172-.746z" fill="#281b14"/>
  <path d="m10.736,29.394c.959-.321 1.918,0 1.172.746-.638.745-2.025-.428-1.172-.746z" fill="#281b14"/>
  <path d="m13.188,29.712c.64-.958 2.239.534 1.173.64-.853.106-1.707,0-1.173-.64z" fill="#281b14"/>
  <path d="m6.044,31.631c.64-.852 1.173-.212 1.28.746 0,.748-1.812,0-1.28-.746z" fill="#281b14"/>
  <path d="m15.96,29.818c1.065-.424 2.025,0 1.279.64-.745.746-2.132-.427-1.279-.64z" fill="#281b14"/>
  <path d="m8.39,32.165c1.067-.64 1.813-.212 1.067.534s-1.813-.214-1.067-.534z" fill="#281b14"/>
  <path d="m10.629,32.592c.64-.96 2.239.533 1.278.746-.959.106-1.704-.001-1.278-.746z" fill="#281b14"/>
  <path d="m13.614,33.019c1.172-.32 1.92,0 1.172.638-.639.747-2.025-.532-1.172-.638z" fill="#281b14"/>
  <path d="m16.494,33.444c1.065-.533 1.705-.212 1.065.533-.747.749-1.812-.106-1.065-.533z" fill="#281b14"/>
  <path d="m10.948,36.002c.641-.853 1.281-.212 1.281.746 0,.748-1.707,0-1.281-.746z" fill="#281b14"/>
  <path d="m6.577,34.726c1.067-.534 1.707-.109 1.067.637-.747.639-1.812-.213-1.067-.637z" fill="#281b14"/>
  <path d="m8.604,35.471c.532-.854 2.238.64 1.173.746-.96.106-1.707,0-1.173-.746z" fill="#281b14"/>
  <path d="m13.614,36.429c1.067-.427 2.026,0 1.279.746s-2.025-.427-1.279-.746z" fill="#281b14"/>
  <path d="m16.6,36.963c.64-.96 2.239.639 1.279.746s-1.813-.001-1.279-.746z" fill="#281b14"/>
  <path d="m19.372,37.39c.64-.854 2.238.531 1.279.746-.96.106-1.813,0-1.279-.746z" fill="#281b14"/>
  <path d="m16.812 30.14s36.89-4.159 52.349 1.279" fill="none" stroke="#342313" stroke-linecap="round" stroke-linejoin="round" stroke-miterlimit="2.4142" stroke-width=".792"/>
  <path d="m13.934,30.14s35.503.96 45.632,9.596" fill="none" stroke="#342313" stroke-linecap="round" stroke-linejoin="round" stroke-miterlimit="2.4142" stroke-width=".792"/>
  <path d="m11.482 29.927s24.308 6.396 25.055 18.124" fill="none" stroke="#342313" stroke-linecap="round" stroke-linejoin="round" stroke-miterlimit="2.4142" stroke-width=".792"/>
  <path d="m9.03 29.394s17.379 8.848 21.11 20.363" fill="none" stroke="#342313" stroke-linecap="round" stroke-linejoin="round" stroke-miterlimit="2.4142" stroke-width=".792"/>
  <path d="m6.577 29.179s13.008 8.317 12.261 20.578" fill="none" stroke="#342313" stroke-linecap="round" stroke-linejoin="round" stroke-miterlimit="2.4142" stroke-width=".792"/>
  <path d="m6.577 32.165s16.633 6.826 18.338 18.338" fill="none" stroke="#342313" stroke-linecap="round" stroke-linejoin="round" stroke-miterlimit="2.4142" stroke-width=".792"/>
  <path d="m9.03 32.377s34.544 2.24 39.021 13.967" fill="none" stroke="#342313" stroke-linecap="round" stroke-linejoin="round" stroke-miterlimit="2.4142" stroke-width=".792"/>
  <path d="m11.27 33.125s37.954 3.41 41.899 9.061" fill="none" stroke="#342313" stroke-linecap="round" stroke-linejoin="round" stroke-miterlimit="2.4142" stroke-width=".792"/>
  <path d="m14.361 33.337s14.712 6.611 17.911 15.674" fill="none" stroke="#342313" stroke-linecap="round" stroke-linejoin="round" stroke-miterlimit="2.4142" stroke-width=".792"/>
  <path d="m17.347 33.656s35.076-1.279 44.671 3.307" fill="none" stroke="#342313" stroke-linecap="round" stroke-linejoin="round" stroke-miterlimit="2.4142" stroke-width=".792"/>
  <path d="m7.003 35.044s15.994 6.929 19.191 13.006" fill="none" stroke="#342313" stroke-linecap="round" stroke-linejoin="round" stroke-miterlimit="2.4142" stroke-width=".792"/>
  <path d="m11.482 36.323s22.816 2.771 28.68 8.53" fill="none" stroke="#342313" stroke-linecap="round" stroke-linejoin="round" stroke-miterlimit="2.4142" stroke-width=".792"/>
  <path d="m161.28 135.9c2.665 2.88-15.461-9.703-14.5-10.767 1.06-1.17 10.66 6.29 14.5 10.77z" fill="#4b3326"/>
  <path d="m115.43 31.846c3.412 1.918-12.901-2.773-12.261-4.159s7.14 1.171 12.26 4.159z" fill="#4b3326"/>
  <path d="m117.35,39.415c3.412,1.919-12.688-2.879-12.047-4.371 .64-1.388 6.93,1.491 12.05,4.371z" fill="#4b3326"/>
  <path d="m96.881,53.701c3.518,1.812-13.327-3.625-12.794-5.01 .534-1.493 7.569,2.239 12.794,5.01z" fill="#4b3326"/>
  <path d="m87.178,56.686c3.093,2.346-9.489-3.837-8.635-5.223 .746-1.388 3.839,1.704 8.635,5.223z" fill="#4b3326"/>
  <path d="m102,45.599c3.304,2.24-13.967-3.944-13.222-5.332 .959-1.813 9.383,2.667 13.222,5.332z" fill="#4b3326"/>
  <path d="m116.28,27.154c-6.822-4.478-14.285-2.559-13.113-4.583 .64-1.494 8.21,1.277 13.11,4.583z" fill="#4b3326"/>
  <path d="m193.26 208.51c2.027 2.452-15.137-7.89-8.953-11.942-2.14 1.38 6.07 8.53 8.95 11.94z" fill="#34231a"/>
  <path d="m192.84,200.83c2.021,3.413-11.519-9.809-5.76-12.261-1.28.53 2.66,7.14 5.76,12.26z" fill="#4b3326"/>
  <path d="m185.69,213.62c.637,2.346-15.992-10.767-10.13-15.673-3.09,2.56 9.06,11.52 10.13,15.67z" fill="#4b3326"/>
  <path d="m180.04,216.5c1.814,3.625-16.63-10.663-11.301-14.073-1.17.75 8.74,9.17 11.3,14.07z" fill="#4b3326"/>
  <path d="m174.39,221.19c2.562,3.094-18.336-7.251-13.861-11.622-.96.96 10.45,7.15 13.86,11.62z" fill="#4b3326"/>
  <path d="m219.81,187.08c-.107,3.944-5.117-17.592-3.624-17.699 1.59-.11 3.62,11.83 3.62,17.7z" fill="#4b3326"/>
  <path d="m228.23,182.17c-.958,3.838-1.278-18.338.215-18.126 1.5.22 1.07,12.27-.21,18.13z" fill="#4b3326"/>
  <path d="m211.28,192.41c.53,3.946-12.37-15.459-6.293-16.95-1.28.32 5.44,11.4 6.29,16.95z" fill="#4b3326"/>
  <path d="m211.39,184.2c0,3.944-5.116-17.592-3.519-17.804 1.6-.11 3.63,11.83 3.52,17.8z" fill="#4b3326"/>
  <path d="m201.04,192.09c1.173,3.732-9.915-15.353-8.527-15.992 1.5-.54 6.94,10.23 8.53,15.99z" fill="#4b3326"/>
  <path d="m198.91 197.74c2.025 2.558-12.795-7.996-6.289-11.515-2.24 1.28 3.52 8.11 6.29 11.52z" fill="#4b3326"/>
  <path d="m178.76 198.49s-12.261-9.384-9.808-10.878 9.81 10.88 9.81 10.88z" fill="#4b3326"/>
  <path d="m209.89 198.7s-7.784-4.373-5.863-5.865c2.03-1.5 5.86 5.86 5.86 5.86z" fill="#4b3326"/>
  <path d="m166.5,206.38s-12.792,0-13.218-3.517c-.534-3.413 2.879-.96 5.331.531 2.46,1.49 7.89,2.99 7.89,2.99z" fill="#4b3326"/>
  <path d="m216.61 193.58s-5.01-7.462-2.451-7.462c2.45 0 2.45 7.46 2.45 7.46z" fill="#4b3326"/>
  <path d="m224.93 192.62s-4.903-11.3-2.452-11.833 2.45 11.83 2.45 11.83z" fill="#4b3326"/>
  <path d="m160.1,220.55s-10.769-1.918-10.769-4.904c.01-2.98 6.4,2.99 10.77,4.9z" fill="#4b3326"/>
  <path d="m223.97,166.5s5.865-9.169 1.919-15.031c-2.56-3.84.53,9.7-1.92,15.03z" fill="#4b3326"/>
  <path d="m161.7,127.8c.215.215-14.607-9.594-13.857-10.981 1.07-2.03 8.96,6.18 13.86,10.98z" fill="#4b3326"/>
  <path d="m175.24 136.86c2.346 3.197-14.606-11.088-13.433-12.155 2.99-2.66 9.49 6.62 13.43 12.16z" fill="#4b3326"/>
  <path d="m168.95 124.39s-7.887-4.374-5.863-5.865c1.92-1.49 5.86 5.87 5.86 5.87z" fill="#4b3326"/>
  <path d="m178.12,128.12s-10.024-4.475-9.278-7.354c.76-2.89 5.44,4.36 9.28,7.35z" fill="#4b3326"/>
  <path d="m181.11,125.45s-6.289-6.184-3.837-6.717c2.35-.53 3.84,6.72 3.84,6.72z" fill="#4b3326"/>
  <path d="m189.32,130.36c1.066,3.729-10.024-15.355-8.529-15.995 1.38-.63 6.82,10.24 8.53,16z" fill="#4b3326"/>
  <path d="m193.05,133.24s-5.011-11.3-2.452-11.728c2.45-.53 2.45,11.73 2.45,11.73z" fill="#4b3326"/>
  <path d="m172.79 120.23s-7.993-9.384-5.753-10.557c2.23-1.17 5.75 10.56 5.75 10.56z" fill="#4b3326"/>
  <path d="m145.6 126.63s-7.995-3.625-5.969-4.904c2.03-1.29 5.97 4.9 5.97 4.9z" fill="#4b3326"/>
  <path d="m166.5 136.65s-7.887-4.369-5.971-5.863c2.03-1.5 5.97 5.86 5.97 5.86z" fill="#4b3326"/>
  <path d="m199.76,132.28s-4.796-7.677-2.452-7.999c2.45-.42 2.45,8 2.45,8z" fill="#4b3326"/>
  <path d="m102.42,189s-2.239-10.77.533-11.834c2.67-1.18-.31,7.03-.53,11.83z" fill="#4b3326"/>
  <path d="m107.44,41.228c3.305,1.813-9.382-3.198-7.89-4.265 1.49-.961 5.65,2.985 7.89,4.265z" fill="#4b3326"/>
  <path d="m200.08,204.88s-6.611-5.01-5.544-6.184c.96-1.28 5.54,6.18 5.54,6.18z" fill="#34231a"/>
  <path d="m199.87,194.75s-6.398-4.689-4.903-5.65c1.49-.96 4.9,5.65 4.9,5.65z" fill="#34231a"/>
  <path d="m205.52,190.81s-3.942-1.706-4.155-5.438c-.32-3.62 4.16,5.44 4.16,5.44z" fill="#34231a"/>
  <path d="m215.86,183.67s-5.226-5.969-3.517-6.502c1.61-.65 3.52,6.5 3.52,6.5z" fill="#34231a"/>
  <path d="m185.37 205.63s-6.611-5.01-5.65-6.184c1.07-1.28 5.65 6.18 5.65 6.18z" fill="#34231a"/>
  <path d="m188.36,212.45s-6.608-4.904-5.65-6.077c.96-1.27 5.65,6.08 5.65,6.08z" fill="#34231a"/>
  <path d="m197.85,209.68s-6.613-4.798-5.547-6.078c.96-1.17 5.55,6.08 5.55,6.08z" fill="#34231a"/>
  <path d="m198.38 213.41s-6.608-4.904-5.648-6.077c1.07-1.28 5.65 6.08 5.65 6.08z" fill="#34231a"/>
  <path d="m193.8,212.88s-7.036-4.371-6.184-5.652c.84-1.28 6.18,5.65 6.18,5.65z" fill="#34231a"/>
  <path d="m179.51,212.45s-7.677-6.077-6.183-6.398c1.49-.21 6.18,6.4 6.18,6.4z" fill="#34231a"/>
  <path d="m184.41 218.85s-4.905-2.453-3.412-3.201 3.41 3.2 3.41 3.2z" fill="#34231a"/>
  <path d="m213.84,203.6s-4.158-3.731-3.2-4.159c.96-.53 3.2,4.16 3.2,4.16z" fill="#34231a"/>
  <path d="m170.66,214.9s-6.184-5.65-4.37-6.184c1.71-.42 4.37,6.18 4.37,6.18z" fill="#34231a"/>
  <path d="m165.75 220.98s-14.498-8.742-11.515-8.742c2.99 0 11.51 8.74 11.51 8.74z" fill="#34231a"/>
  <path d="m205.74 206.38s-5.863-2.771-4.368-4.477c1.49-1.71 4.37 4.48 4.37 4.48z" fill="#34231a"/>
  <path d="m210.64,207.01s-7.356-4.371-5.329-4.904c1.92-.43 5.33,4.9 5.33,4.9z" fill="#4b3326"/>
  <path d="m208.51,211.71s-8.103-.96-7.466-2.452c.75-1.5 7.47,2.45 7.47,2.45z" fill="#4b3326"/>
  <path d="m215.86,201.9s-5.013-5.438-2.986-5.653c1.93-.32 2.99,5.65 2.99,5.65z" fill="#4b3326"/>
  <path d="m204.35,199.66s-4.265-3.731-3.307-4.158c1.07-.53 3.31,4.16 3.31,4.16z" fill="#34231a"/>
  <path d="m215.44 210.96s-5.328-5.971-3.625-6.611 3.62 6.61 3.62 6.61z" fill="#34231a"/>
  <path d="m200.62,208.3s-4.904-2.455-3.52-3.2c1.49-.75 3.52,3.2 3.52,3.2z" fill="#34231a"/>
  <path d="m201.58,213.41s-4.48-3.307-2.881-3.731c1.6-.43 2.88,3.73 2.88,3.73z" fill="#34231a"/>
  <path d="m225.14,180.36s-4.37-7.89-1.918-8.102c2.45-.22 1.92,8.1 1.92,8.1z" fill="#4b3326"/>
  <path d="m156.9,129.08s-6.608-4.904-5.647-6.183c.96-1.18 5.65,6.18 5.65,6.18z" fill="#34231a"/>
  <path d="m162.24 125.35s-6.399-5.223-5.76-6.077c1.07-1.17 5.76 6.08 5.76 6.08z" fill="#34231a"/>
  <path d="m164.9,121.94s-6.611-4.904-5.652-6.078c.96-1.28 5.65,6.08 5.65,6.08z" fill="#34231a"/>
  <path d="m179.08,125.77s-6.61-4.905-5.545-6.183c.96-1.17 5.54,6.18 5.54,6.18z" fill="#34231a"/>
  <path d="m176.42,131.85s-6.608-5.01-5.646-6.186c.96-1.27 5.65,6.19 5.65,6.19z" fill="#34231a"/>
  <path d="m184.31 131.85s-5.015-4.371-3.52-4.371c1.7 0 2.02 3.3 3.52 4.37z" fill="#34231a"/>
  <path d="m168.21 134.41s-5.01-4.371-3.41-4.371c1.59 0 1.91 3.3 3.41 4.37z" fill="#34231a"/>
  <path d="m179.08 117.03s-5.012-4.267-3.411-4.267 2.03 3.31 3.41 4.27z" fill="#34231a"/>
  <path d="m188.78 121.94s-5.014-4.265-3.413-4.265 1.92 3.3 3.41 4.26z" fill="#34231a"/>
  <path d="m195.71,129.61s-4.05-5.223-2.453-4.904c1.49.32 1.17,3.62 2.45,4.9z" fill="#34231a"/>
  <path d="m194.12,123.86c-1.173-2.24-1.815-3.092-3.412-3.947-1.707-.852-.534-1.279.746-.427 1.91,1.07 2.66,4.38 2.66,4.38z" fill="#34231a"/>
  <path d="m148.59,133.02c-1.171-2.134-1.706-3.092-3.304-3.837-1.706-.854-.641-1.282.636-.534 1.91,1.17 2.66,4.37 2.66,4.37z" fill="#34231a"/>
  <path d="m199.13,124.17c-1.173-2.237-1.706-3.092-3.412-3.944-1.706-.748-.533-1.173.854-.427 1.81,1.18 2.56,4.37 2.56,4.37z" fill="#34231a"/>
  <path d="m96.988,47.729s-7.677-2.877-7.143-4.265c.639-1.491 7.143,4.265 7.143,4.265z" fill="#34231a"/>
  <path d="m104.13,42.08s-7.677-2.877-7.144-4.263c.642-1.494 7.144,4.263 7.144,4.263z" fill="#34231a"/>
  <path d="m107.44,33.337s-4.691-1.706-3.945-2.664c.74-.961 3.94,2.664 3.94,2.664z" fill="#342313"/>
  <path d="m112.55,28.646s-9.596-1.919-8.85-3.198c.75-1.174 8.85,3.198 8.85,3.198z" fill="#342313"/>
  <path d="m120.66,31.631s-6.397-2.237-5.331-2.986c.95-.745 5.33,2.986 5.33,2.986z" fill="#342313"/>
  <path d="m118.2,37.708s-8.316-2.879-7.356-3.837c.97-.96 7.36,3.837 7.36,3.837z" fill="#342313"/>
  <path d="m111.38,41.44s-6.184-1.492-5.438-2.665c.75-1.279 5.44,2.665 5.44,2.665z" fill="#342313"/>
  <path d="m99.546,52.527s-5.864-2.558-5.331-3.729c.427-1.172 1.92-.214 5.331,3.729z" fill="#342313"/>
  <path d="m141.34,126.52s-5.652-2.452-5.758-2.985c-.42-1.28 4.27,1.38 5.76,2.98z" fill="#342313"/>
  <path d="m152.85,134.3s-3.837-1.598-3.731-2.983c0-.54 2.56.85 3.73,2.98z" fill="#342313"/>
  <path d="m139.63 126.73s-10.234-1.492-8.85-2.771c1.28-1.39 5.76 2.35 8.85 2.77z" fill="#4b3326"/>
  <path d="m137.4,123.11s-9.277-3.944-6.823-4.371c2.44-.32 5,3.62 6.82,4.37z" fill="#4b3326"/>
  <path d="m141.55,129.82s-3.732-1.597-3.732-2.876c0-.63 2.56.86 3.73,2.88z" fill="#342313"/>
  <path d="m134.73,127.9s-4.051-.746-4.265-2.131c-.1-.53 2.67.32 4.27,2.13z" fill="#342313"/>
  <path d="m146.46,123.96s-3.945-1.067-2.879-1.601c.96-.64 2.88,1.6 2.88,1.6z" fill="#4b3326"/>
  <path d="m150.19 123.64s-6.61-2.988-5.438-3.519 5.44 3.52 5.44 3.52z" fill="#4b3326"/>
  <path d="m127.05,128.97s-5.65-2.453-5.757-2.986c-.31-1.27 4.27,1.39 5.76,2.99z" fill="#342313"/>
  <path d="m129.72,124.07s-5.652-3.413-4.052-3.731c1.6-.22 2.45,2.98 4.05,3.73z" fill="#34231a"/>
  <path d="m121.72 217.14s-6.185-5.65-4.479-6.183 4.48 6.18 4.48 6.18z" fill="#34231a"/>
  <path d="m100.51 198.91s-3.625-7.356-1.705-8.53c2.025-1.28 1.705 8.53 1.705 8.53z" fill="#34231a"/>
  <path d="m106.26,202.11s-3.518-5.65-3.304-8.53c.32-2.98 3.3,8.53 3.3,8.53z" fill="#34231a"/>
  <path d="m105.52,193.58s-2.666-1.704-1.067-6.716c1.28-3.62.32,4.7 1.07,6.72z" fill="#4b3326"/>
  <path d="m111.06,208.3s-5.118-5.438-2.878-7.677c1.49-1.5.22,3.2 2.88,7.68z" fill="#4b3326"/>
  <path d="m115.75,213.41s-5.116-5.438-2.983-7.571c1.49-1.49.32,3.09 2.98,7.57z" fill="#4b3326"/>
  <path d="m104.34,204.14s-2.878-.958-2.345-6.184c.42-3.95 1.17,4.47 2.34,6.18z" fill="#4b3326"/>
  <path d="m109.67,210s-6.183-5.65-4.476-6.184c1.71-.43 4.48,6.18 4.48,6.18z" fill="#34231a"/>
  <path d="m114.79,216.4s-4.905-4.691-3.411-5.225c1.39-.43 3.41,5.22 3.41,5.22z" fill="#4b3326"/>
  <path d="m123.64 214.69s-5.438-3.946-3.198-3.946 3.2 3.95 3.2 3.95z" fill="#4b3326"/>
  <path d="m126.52,124.39s-5.544-2.452-5.757-2.879c-.32-1.39 4.37,1.28 5.76,2.88z" fill="#342313"/>
  <path d="m129.83,129.08s-5.651-3.413-4.052-3.731c1.59-.22 2.45,2.98 4.05,3.73z" fill="#34231a"/>
  <path d="m133.56,129.29s-4.052-.958-3.093-1.598c1.06-.53 3.09,1.6 3.09,1.6z" fill="#4b3326"/>
  <path d="m138.99,129.4s-3.944-.961-4.156-2.346c.01-.53 2.67.54 4.16,2.35z" fill="#342313"/>
  <path d="m127.37,131.1s-4.051-1.067-4.157-2.452c-.1-.53 2.67.54 4.16,2.45z" fill="#342313"/>
  <path d="m120.23,128.12s-3.945-1.064-4.159-2.344c0-.54 2.67.53 4.16,2.34z" fill="#342313"/>
  <path d="m131.21,130.89s-4.053-.958-2.985-1.6c.97-.64 2.99,1.6 2.99,1.6z" fill="#4b3326"/>
  <path d="m137.61,130.57s-4.157-.639-3.198-1.281c.85-.75 3.2,1.28 3.2,1.28z" fill="#4b3326"/>
 </g>
</svg>
